<?xml version="1.0" encoding="utf-8"?>
<!-- Generator: Adobe Illustrator 17.1.0, SVG Export Plug-In . SVG Version: 6.00 Build 0)  -->
<!DOCTYPE svg PUBLIC "-//W3C//DTD SVG 1.1//EN" "http://www.w3.org/Graphics/SVG/1.1/DTD/svg11.dtd">
<svg version="1.1" id="Layer_1" xmlns="http://www.w3.org/2000/svg" xmlns:xlink="http://www.w3.org/1999/xlink" x="0px" y="0px"
	 viewBox="0 0 307 193" enable-background="new 0 0 307 193" xml:space="preserve">
<g id="Shape_7_copy_1_">
	<g id="Shape_7_copy">
		<g id="g6">
			<path id="path8" fill="#FFFFFF" stroke="#030202" stroke-width="0.5" stroke-miterlimit="10" d="M192.4,33.2
				c-0.4-3.3-0.8-4.5-2.2-5.8c-1.7-1.6-3.3-2.2-7.6-2.5c-13.1-0.9-39.5-1.1-53.6-0.3c-5.2,0.3-6.1-0.2-8.6,1.8
				c-1.8,1.4-2.3,2.9-3,5.6c-1.2,5.2-1.8,11.6-1.8,11.6h77.1C192.8,43.6,192.9,38.1,192.4,33.2z"/>
		</g>
	</g>
</g>
<g id="Shape_7_copy_2_1_">
	<g id="Shape_7_copy_2">
		<g id="g12">
			<path id="path14" fill="#FFFFFF" stroke="#030202" stroke-width="0.5" stroke-miterlimit="10" d="M191.8,33.6
				c-0.4-3.3-0.8-4.4-2.2-5.7c-1.7-1.6-3.3-2.2-7.4-2.5c-12.9-0.9-38.9-1.1-52.8-0.3c-5.1,0.3-6-0.2-8.5,1.8
				c-1.8,1.4-2.3,2.9-2.9,5.5c-1.2,5.1-1.8,11.5-1.8,11.5h76C192.2,43.9,192.3,38.5,191.8,33.6z"/>
		</g>
	</g>
</g>
<g id="Shape_30_1_">
	<g id="Shape_30">
		<g id="g18">
			<path id="path20" fill="#FFFFFF" stroke="#030202" stroke-width="0.5" stroke-miterlimit="10" d="M168,28.6h-26.6
				c-1.4,0-2.5,1.3-2.5,3v1.9c0,1.7,1.1,3,2.5,3H168c1.4,0,2.5-1.3,2.5-3v-1.9C170.5,30,169.3,28.6,168,28.6z"/>
		</g>
	</g>
</g>
<g id="Shape_31_1_">
	<g id="Shape_31">
		<g id="g24">
			
				<rect id="rect26" x="117.8" y="32.3" fill="#FFFFFF" stroke="#030202" stroke-width="0.5" stroke-miterlimit="10" width="74.3" height="0.2"/>
		</g>
	</g>
</g>
<g id="Shape_30_copy_1_">
	<g id="Shape_30_copy">
		<g id="g30">
			<path id="path32" fill="#FFFFFF" stroke="#030202" stroke-width="0.5" stroke-miterlimit="10" d="M167.7,29h-26
				c-1.3,0-2.4,1.2-2.4,2.8v1.7c0,1.5,1.1,2.8,2.4,2.8h26c1.3,0,2.4-1.2,2.4-2.8v-1.7C170.1,30.2,169,29,167.7,29z"/>
		</g>
	</g>
</g>
<g id="Shape_1_1_">
	<g id="Shape_1">
		<g id="g42">
			<path id="path44" fill="#FFFFFF" stroke="#030202" stroke-width="0.5" stroke-miterlimit="10" d="M290,97.5
				c0,0-11.4-34.2-17.9-43.6c-8.5-12.5-21.4-26.5-26.2-28.5s-20.4-2.3-24.4-0.6c-4,1.7-16.9,13.3-26.8,16.1s-68,1.4-76,0.3
				c-7.9-1.1-11.9-1.4-18.7-5.9S89.9,25.2,87.6,24c-2.3-1.1-18.9-1-23.1,0.7c-4.3,1.7-18.4,15.2-28.8,32.5S14,112.5,12.9,121.3
				c-2,16.4-1,29.8-0.5,32.6s4.2,21.7,18.2,27.5c18.1,7.6,43.9-8,62.4-15.3c19.2-7.5,23.8-6.9,37.2-6.9c26.6,0,24.7-0.3,51.3-0.3
				c27.2,0,49.9,14.3,62.3,19.1s21.6,8.3,33.5,0.6s16.7-22.3,18.4-37.1S290,97.5,290,97.5z"/>
		</g>
	</g>
</g>
<g id="Shape_16_copy_2_1_">
	<g id="Shape_16_copy_2">
		<g id="g48">
			
				<ellipse id="ellipse50" fill="#FFFFFF" stroke="#030202" stroke-width="0.5" stroke-miterlimit="10" cx="111" cy="139" rx="33" ry="26.8"/>
		</g>
	</g>
</g>
<g id="Shape_16_copy_3_1_">
	<g id="Shape_16_copy_3">
		<g id="g54">
			
				<ellipse id="ellipse56" fill="#FFFFFF" stroke="#030202" stroke-width="0.5" stroke-miterlimit="10" cx="111" cy="139" rx="31.9" ry="25.9"/>
		</g>
	</g>
</g>
<g id="Shape_16_copy_4_1_">
	<g id="Shape_16_copy_4">
		<g id="g60">
			
				<ellipse id="ellipse62" fill="#FFFFFF" stroke="#030202" stroke-width="0.5" stroke-miterlimit="10" cx="195.4" cy="139.3" rx="30.4" ry="22.6"/>
		</g>
	</g>
</g>
<g id="Shape_16_copy_5_1_">
	<g id="Shape_16_copy_5">
		<g id="g66">
			
				<ellipse id="ellipse68" fill="#FFFFFF" stroke="#030202" stroke-width="0.5" stroke-miterlimit="10" cx="195.4" cy="139.3" rx="29.3" ry="21.8"/>
		</g>
	</g>
</g>
<g id="Shape_16_copy_6_1_">
	<g id="Shape_16_copy_6">
		<g id="g72">
			<path id="path74" fill="#FFFFFF" stroke="#030202" stroke-width="0.5" stroke-miterlimit="10" d="M69.7,73.7
				C52,70.6,36.1,79.1,34.2,92.6c-2,13.5,10.7,27,28.3,30.1S96,117.4,98,103.9C100,90.4,87.3,76.9,69.7,73.7z"/>
		</g>
	</g>
</g>
<g id="Shape_16_copy_7_1_">
	<g id="Shape_16_copy_7">
		<g id="g78">
			<path id="path80" fill="#FFFFFF" stroke="#030202" stroke-width="0.5" stroke-miterlimit="10" d="M69.5,74.6
				c-17-3-32.3,5.1-34.2,18.2c-1.9,13,10.3,26,27.3,29s32.3-5.1,34.2-18.2C98.8,90.6,86.5,77.6,69.5,74.6z"/>
		</g>
	</g>
</g>
<g id="Shape_16_1_">
	<g id="Shape_16">
		<g id="g84">
			
				<ellipse id="ellipse86" fill="#FFFFFF" stroke="#030202" stroke-width="0.5" stroke-miterlimit="10" cx="110.6" cy="142.6" rx="28.1" ry="23.2"/>
		</g>
	</g>
</g>
<g id="Shape_16_copy_1_">
	<g id="Shape_16_copy">
		<g id="g90">
			
				<ellipse id="ellipse92" fill="#FFFFFF" stroke="#030202" stroke-width="0.5" stroke-miterlimit="10" cx="110.6" cy="142.6" rx="27.1" ry="22.4"/>
		</g>
	</g>
</g>
<g id="Shape_12_1_">
	<g id="Shape_12">
		<g id="g96">
			
				<ellipse id="ellipse98" fill="#FFFFFF" stroke="#030202" stroke-width="0.5" stroke-miterlimit="10" cx="195" cy="143.4" rx="20.9" ry="15.1"/>
		</g>
	</g>
</g>
<g id="Shape_12_copy_6_1_">
	<g id="Shape_12_copy_6">
		<g id="g102">
			
				<ellipse id="ellipse104" fill="#FFFFFF" stroke="#030202" stroke-width="0.5" stroke-miterlimit="10" cx="195" cy="143.4" rx="20.3" ry="14.7"/>
		</g>
	</g>
</g>
<g id="Shape_12_copy_1_">
	<g id="Shape_12_copy">
		<g id="g108">
			
				<ellipse id="ellipse110" fill="#FFFFFF" stroke="#030202" stroke-width="0.5" stroke-miterlimit="10" cx="195.3" cy="151.9" rx="18.7" ry="15.1"/>
		</g>
	</g>
</g>
<g id="Shape_12_copy_7_1_">
	<g id="Shape_12_copy_7">
		<g id="g114">
			
				<ellipse id="ellipse116" fill="#FFFFFF" stroke="#030202" stroke-width="0.5" stroke-miterlimit="10" cx="195.3" cy="151.9" rx="17.8" ry="14.3"/>
		</g>
	</g>
</g>
<g id="Shape_12_copy_8_1_">
	<g id="Shape_12_copy_8">
		<g id="g120">
			
				<ellipse id="ellipse122" fill="#FFFFFF" stroke="#030202" stroke-width="0.5" stroke-miterlimit="10" cx="195.9" cy="153.3" rx="11.5" ry="9.3"/>
		</g>
	</g>
</g>
<g id="Shape_12_copy_4_1_">
	<g id="Shape_12_copy_4">
		<g id="g126">
			
				<ellipse id="ellipse128" fill="#FFFFFF" stroke="#030202" stroke-width="0.5" stroke-miterlimit="10" cx="111" cy="143.1" rx="23.5" ry="19.3"/>
		</g>
	</g>
</g>
<g id="Shape_12_copy_5_1_">
	<g id="Shape_12_copy_5">
		<g id="g132">
			
				<ellipse id="ellipse134" fill="#FFFFFF" stroke="#030202" stroke-width="0.5" stroke-miterlimit="10" cx="111" cy="143.1" rx="22.9" ry="18.8"/>
		</g>
	</g>
</g>
<g id="Shape_15_1_">
	<g id="Shape_15">
		<g id="g138">
			
				<ellipse id="ellipse140" fill="#FFFFFF" stroke="#030202" stroke-width="0.5" stroke-miterlimit="10" cx="110.5" cy="145.5" rx="21.9" ry="17.7"/>
		</g>
	</g>
</g>
<g id="Shape_15_copy_1_">
	<g id="Shape_15_copy">
		<g id="g144">
			
				<ellipse id="ellipse146" fill="#FFFFFF" stroke="#030202" stroke-width="0.5" stroke-miterlimit="10" cx="110.5" cy="145.5" rx="21.2" ry="17.2"/>
		</g>
	</g>
</g>
<g id="Shape_14_1_">
	<g id="Shape_14">
		<g id="g150">
			<path id="path152" fill="#FFFFFF" stroke="#030202" stroke-width="0.5" stroke-miterlimit="10" d="M131.5,140.5
				c0,0-7.3-0.2-10.3-3.4s-2.8-8.3-2.8-8.3s-4.1-1-7.9-1.2c-3.9-0.1-7.6,1.2-7.6,1.2s0.4,5.4-2.5,8.6c-3,3.2-10.6,2.7-10.6,2.7
				s-1,2.6-1,5.2c0,2.9,1.2,5.9,1.2,5.9s7.5-0.5,10.3,2.3s2.5,8.4,2.5,8.4s4.5,1.2,8.5,1.2c4.2,0,8.5-1.7,8.5-1.7s-0.7-2.7,2.5-7.3
				s9.4-4.3,9.4-4.3s0.6-2.1,0.6-4.5C132.3,142.9,131.5,140.5,131.5,140.5z"/>
		</g>
	</g>
</g>
<g id="Shape_14_copy_1_">
	<g id="Shape_14_copy">
		<g id="g156">
			<path id="path158" fill="#FFFFFF" stroke="#030202" stroke-width="0.5" stroke-miterlimit="10" d="M131,140.6c0,0-7.1-0.2-10-3.3
				c-2.9-3.1-2.8-8-2.8-8s-4-1-7.7-1.1c-3.8-0.1-7.4,1.1-7.4,1.1s0.4,5.3-2.5,8.4c-2.9,3.1-10.3,2.6-10.3,2.6s-1,2.5-1,5.1
				c0,2.8,1.2,5.7,1.2,5.7s7.3-0.5,10,2.2s2.4,8.2,2.4,8.2s4.3,1.2,8.3,1.2c4.1,0,8.3-1.7,8.3-1.7s-0.7-2.6,2.4-7.1s9.2-4.1,9.2-4.1
				s0.6-2,0.6-4.4C131.7,143,131,140.6,131,140.6z"/>
		</g>
	</g>
</g>
<g id="Shape_13_1_">
	<g id="Shape_13">
		<g id="g162">
			
				<circle id="circle164" fill="#FFFFFF" stroke="#030202" stroke-width="0.5" stroke-miterlimit="10" cx="195.5" cy="143.4" r="1"/>
		</g>
	</g>
</g>
<g id="Shape_13_copy_1_">
	<g id="Shape_13_copy">
		<g id="g168">
			
				<circle id="circle170" fill="#FFFFFF" stroke="#030202" stroke-width="0.5" stroke-miterlimit="10" cx="195.5" cy="162.8" r="1"/>
		</g>
	</g>
</g>
<g id="Shape_13_copy_2_1_">
	<g id="Shape_13_copy_2">
		<g id="g174">
			<circle id="circle176" fill="#FFFFFF" stroke="#030202" stroke-width="0.5" stroke-miterlimit="10" cx="208.3" cy="154" r="1"/>
		</g>
	</g>
</g>
<g id="Shape_13_copy_3_1_">
	<g id="Shape_13_copy_3">
		<g id="g180">
			<circle id="circle182" fill="#FFFFFF" stroke="#030202" stroke-width="0.5" stroke-miterlimit="10" cx="183.6" cy="154" r="1"/>
		</g>
	</g>
</g>
<g id="Shape_13_copy_4_1_">
	<g id="Shape_13_copy_4">
		<g id="g186">
			<circle id="circle188" fill="#FFFFFF" stroke="#030202" stroke-width="0.5" stroke-miterlimit="10" cx="65.4" cy="101.3" r="1"/>
		</g>
	</g>
</g>
<g id="Shape_12_copy_9_1_">
	<g id="Shape_12_copy_9">
		<g id="g192">
			
				<ellipse id="ellipse194" fill="#FFFFFF" stroke="#030202" stroke-width="0.5" stroke-miterlimit="10" cx="66.6" cy="102.6" rx="20.9" ry="15.1"/>
		</g>
	</g>
</g>
<g id="Shape_12_copy_10_1_">
	<g id="Shape_12_copy_10">
		<g id="g198">
			
				<ellipse id="ellipse200" fill="#FFFFFF" stroke="#030202" stroke-width="0.5" stroke-miterlimit="10" cx="66.6" cy="102.6" rx="20.3" ry="14.7"/>
		</g>
	</g>
</g>
<g id="Shape_12_copy_11_1_">
	<g id="Shape_12_copy_11">
		<g id="g204">
			
				<ellipse id="ellipse206" fill="#FFFFFF" stroke="#030202" stroke-width="0.5" stroke-miterlimit="10" cx="66.9" cy="111.1" rx="18.7" ry="15.1"/>
		</g>
	</g>
</g>
<g id="Shape_12_copy_12_1_">
	<g id="Shape_12_copy_12">
		<g id="g210">
			
				<ellipse id="ellipse212" fill="#FFFFFF" stroke="#030202" stroke-width="0.5" stroke-miterlimit="10" cx="66.9" cy="111.1" rx="17.8" ry="14.3"/>
		</g>
	</g>
</g>
<g id="Shape_12_copy_13_1_">
	<g id="Shape_12_copy_13">
		<g id="g216">
			
				<ellipse id="ellipse218" fill="#FFFFFF" stroke="#030202" stroke-width="0.5" stroke-miterlimit="10" cx="67.2" cy="112.7" rx="11.5" ry="9.3"/>
		</g>
	</g>
</g>
<g id="Shape_13_copy_8_1_">
	<g id="Shape_13_copy_8">
		<g id="g222">
			<circle id="circle224" fill="#FFFFFF" stroke="#030202" stroke-width="0.5" stroke-miterlimit="10" cx="67.1" cy="122.5" r="1"/>
		</g>
	</g>
</g>
<g id="Shape_13_copy_9_1_">
	<g id="Shape_13_copy_9">
		<g id="g228">
			<circle id="circle230" fill="#FFFFFF" stroke="#030202" stroke-width="0.5" stroke-miterlimit="10" cx="79.6" cy="113.2" r="1"/>
		</g>
	</g>
</g>
<g id="Shape_13_copy_10_1_">
	<g id="Shape_13_copy_10">
		<g id="g234">
			<circle id="circle236" fill="#FFFFFF" stroke="#030202" stroke-width="0.5" stroke-miterlimit="10" cx="55.2" cy="113.2" r="1"/>
		</g>
	</g>
</g>
<g id="Shape_13_copy_11_1_">
	<g id="Shape_13_copy_11">
		<g id="g240">
			<circle id="circle242" fill="#FFFFFF" stroke="#030202" stroke-width="0.5" stroke-miterlimit="10" cx="67.1" cy="103" r="1"/>
		</g>
	</g>
</g>
<g id="Shape_11_1_">
	<g id="g246">
		<path id="ellipse248" fill="#FFFFFF" stroke="#030202" stroke-width="0.5" stroke-miterlimit="10" d="M255.4,77.5
			c1,5.1-3.1,10.2-9.1,11.4s-11.8-2-12.8-7.1c-1-5.1,3.1-10.2,9.1-11.4C248.6,69.2,254.4,72.4,255.4,77.5L255.4,77.5z"/>
	</g>
</g>
<g id="Shape_11_copy_1_">
	<g id="Shape_11_copy">
		<g id="g252">
			<path id="path254" fill="#FFFFFF" stroke="#030202" stroke-width="0.5" stroke-miterlimit="10" d="M254.1,114.9
				c-0.9-5-6.7-8.2-12.9-7.1s-10.5,5.9-9.6,10.9s6.7,8.2,12.9,7.1S255.1,119.8,254.1,114.9z"/>
		</g>
	</g>
</g>
<g id="Shape_11_copy_3_1_">
	<g id="Shape_11_copy_3">
		<g id="g258">
			<path id="path260" fill="#FFFFFF" stroke="#030202" stroke-width="0.5" stroke-miterlimit="10" d="M229.8,98.3
				c-0.4-4.8-5.5-8.3-11.3-7.9c-5.9,0.4-10.3,4.6-9.9,9.4s5.5,8.3,11.3,7.9C225.8,107.3,230.2,103.1,229.8,98.3z"/>
		</g>
	</g>
</g>
<g id="Shape_11_copy_2_1_">
	<g id="Shape_11_copy_2">
		<g id="g264">
			<path id="path266" fill="#FFFFFF" stroke="#030202" stroke-width="0.5" stroke-miterlimit="10" d="M276.9,93.1
				c-1.5-4.4-7.3-6.3-12.9-4.4c-5.6,2-9,7.1-7.5,11.5c1.5,4.4,7.3,6.3,12.9,4.4C275,102.6,278.4,97.5,276.9,93.1z"/>
		</g>
	</g>
</g>
<g id="Shape_8_1_">
	<g id="Shape_8">
		<g id="g270">
			<path id="path272" fill="#FFFFFF" stroke="#030202" stroke-width="0.5" stroke-miterlimit="10" d="M174.4,47.6h-38.1
				c-1.6,0-2.9,0-2.9,1.6c0,1.6,1.3,4.1,2.9,4.1h38.1c1.6,0,2.9-2.6,2.9-4.1C177.3,47.6,176,47.6,174.4,47.6z"/>
		</g>
	</g>
</g>
<g id="Shape_9_1_">
	<g id="Shape_9">
		<g id="g276">
			<path id="path278" fill="#FFFFFF" stroke="#030202" stroke-width="0.5" stroke-miterlimit="10" d="M126.6,48l-4.2-0.8
				c-1-0.2-2,0.5-2.2,1.5c-0.2,1,0.5,2,1.5,2.2l4.2,0.8c1,0.2,2-0.5,2.2-1.5C128.3,49.2,127.6,48.2,126.6,48z"/>
		</g>
	</g>
</g>
<g id="Shape_9_copy_1_">
	<g id="Shape_9_copy">
		<g id="g282">
			<path id="path284" fill="#FFFFFF" stroke="#030202" stroke-width="0.5" stroke-miterlimit="10" d="M126.1,48.3l-3.3-0.6
				c-0.8-0.2-1.6,0.4-1.8,1.2s0.4,1.6,1.2,1.8l3.3,0.6c0.8,0.2,1.6-0.4,1.8-1.2C127.5,49.3,126.9,48.5,126.1,48.3z"/>
		</g>
	</g>
</g>
<g id="Shape_10_1_">
	<g id="Shape_10">
		<g id="g288">
			<path id="path290" fill="#FFFFFF" stroke="#030202" stroke-width="0.5" stroke-miterlimit="10" d="M191.3,45.3
				c-1.5,0.4-69.4,1-74.2-0.2c-12.4-3.2-23.4-6.3-23.4-6.3v0.6c0,0,7.6,2.5,23.2,6.6c6,1.6,69,1.3,74.4,0.2c14.6-2.9,26-6.8,26-6.8
				v-0.8C217.3,38.5,205.5,41.8,191.3,45.3z"/>
		</g>
	</g>
</g>
<g id="Shape_10_copy_1_">
	<g id="Shape_10_copy">
		<g id="g294">
			<path id="path296" fill="#FFFFFF" stroke="#030202" stroke-width="0.5" stroke-miterlimit="10" d="M218,52.5
				c0,0-17.1,9.5-30.3,14.8c-1.3,0.5-16.8,1.1-33,0.9c-16.2-0.1-33-1-35.2-2.1c-11.7-5.6-27.1-14.3-27.1-14.3v0.8
				c0,0,10.8,6.5,26.2,14.2c2.8,1.4,19.4,1.9,35.9,2.1c15.6,0.2,31.2-0.1,33.7-1c15.1-5.6,30.2-14.9,30.2-14.9L218,52.5z"/>
		</g>
	</g>
</g>
<g id="Shape_4_1_">
	<g id="Shape_4">
		<g id="g300">
			<path id="path302" fill="#FFFFFF" stroke="#030202" stroke-width="0.5" stroke-miterlimit="10" d="M93.9,38.9
				c-1.9-2.1-16.6-0.2-30.4,1.8C51,42.4,43.1,46,41.2,47.9c-1.9,1.9-5.1,10.3-2.6,10.5c2.9,0.3,13.6-4.3,26.2-5.7
				c14.5-1.6,26.7,0.6,27.8-0.3C94.8,50.8,95.8,41,93.9,38.9z"/>
		</g>
	</g>
</g>
<g id="Shape_4_copy_1_">
	<g id="Shape_4_copy">
		<g id="g306">
			<path id="path308" fill="#FFFFFF" stroke="#030202" stroke-width="0.5" stroke-miterlimit="10" d="M93.1,39.5
				c-1.8-1.9-16.1-0.1-29.4,1.7c-12.1,1.6-19.9,5.2-21.8,7s-5.3,9.2-2.9,9.4c2.8,0.2,13.8-4.6,25.9-5.9c14-1.4,26.1,0.8,27.2,0
				C94.2,50.2,95,41.4,93.1,39.5z"/>
		</g>
	</g>
</g>
<g id="Shape_5_1_">
	<g id="Shape_5">
		<g id="g312">
			<path id="path314" fill="#FFFFFF" stroke="#030202" stroke-width="0.5" stroke-miterlimit="10" d="M126.3,94.9h-6
				c-3.1,0-5.5,2.5-5.5,5.5s2.5,5.5,5.5,5.5h6c3.1,0,5.5-2.5,5.5-5.5S129.4,94.9,126.3,94.9z"/>
		</g>
	</g>
</g>
<g id="Shape_5_copy_1_">
	<g id="Shape_5_copy">
		<g id="g318">
			<path id="path320" fill="#FFFFFF" stroke="#030202" stroke-width="0.5" stroke-miterlimit="10" d="M126,95.6h-5.4
				c-2.7,0-4.9,2.2-4.9,4.9c0,2.7,2.2,4.9,4.9,4.9h5.4c2.7,0,4.9-2.2,4.9-4.9C130.9,97.7,128.7,95.6,126,95.6z"/>
		</g>
	</g>
</g>
<g id="Shape_2_copy_3_1_">
	<g id="Shape_2_copy_3">
		<g id="g324">
			<path id="path326" fill="#FFFFFF" stroke="#030202" stroke-width="0.5" stroke-miterlimit="10" d="M83.9,10.7
				c-0.7-2-16.5-0.8-17.9,1c-0.9,1.5-0.1,5.5-0.9,10.7c-1.2,8.2-3.1,15.7-3.1,15.7L81,36.7c0,0,2.8-3.8,3.2-8.6
				C84.7,21.9,85,14.1,83.9,10.7z"/>
		</g>
	</g>
</g>
<g id="Shape_2_copy_1_">
	<g id="Shape_2_copy">
		<g id="g330">
			<path id="path332" fill="#FFFFFF" stroke="#030202" stroke-width="0.5" stroke-miterlimit="10" d="M83.4,11.3
				c-0.6-1.9-15.7-0.8-17.1,1c-0.9,1.4-0.1,5.3-0.8,10.2c-1.2,7.9-3,15-3,15L81,36.3c0,0,2.4-3.7,2.7-8.2
				C84.2,22.2,84.5,14.6,83.4,11.3z"/>
		</g>
	</g>
</g>
<g id="g336">
	<path id="path338" fill="#FFFFFF" stroke="#030202" stroke-width="0.5" stroke-miterlimit="10" d="M82.1,11.2
		c-0.2,0.5-0.1,8.5-0.5,14.2s-1.4,10.9-1.4,10.9l0.8-0.1c0,0,1.2-7.6,1.4-10.8s0.4-13.6,0.6-14s0.3-0.4,0.3-0.4s-0.1-0.1-0.3-0.2
		c-0.2-0.1-0.5-0.2-0.5-0.2S82.3,10.7,82.1,11.2L82.1,11.2z"/>
</g>
<g id="Shape_4_copy_2_1_">
	<g id="Shape_4_copy_2">
		<g id="g342">
			<path id="path344" fill="#FFFFFF" stroke="#030202" stroke-width="0.5" stroke-miterlimit="10" d="M269.5,47.9
				c-1.9-1.9-9.8-5.5-22.3-7.3c-13.8-2-28.5-3.9-30.4-1.8s-0.9,11.9,1.3,13.6c1.1,0.9,13.3-1.3,27.8,0.3c12.5,1.4,23.3,6,26.2,5.7
				C274.6,58.2,271.4,49.8,269.5,47.9z"/>
		</g>
	</g>
</g>
<g id="Shape_4_copy_3_1_">
	<g id="Shape_4_copy_3">
		<g id="g348">
			<path id="path350" fill="#FFFFFF" stroke="#030202" stroke-width="0.5" stroke-miterlimit="10" d="M268.8,48.2
				c-1.8-1.7-9.7-5.3-21.8-7c-13.3-1.8-27.6-3.6-29.4-1.7c-1.8,1.9-1.1,10.7,1,12.2c1.1,0.8,13.2-1.4,27.2,0
				c12.1,1.2,23.1,6.1,25.9,5.9C274.1,57.4,270.6,49.9,268.8,48.2z"/>
		</g>
	</g>
</g>
<g id="Shape_5_copy_2_1_">
	<g id="Shape_5_copy_2">
		<g id="g354">
			<path id="path356" fill="#FFFFFF" stroke="#030202" stroke-width="0.5" stroke-miterlimit="10" d="M190.4,94.9h-6
				c-3.1,0-5.5,2.5-5.5,5.5s2.5,5.5,5.5,5.5h6c3.1,0,5.5-2.5,5.5-5.5S193.5,94.9,190.4,94.9z"/>
		</g>
	</g>
</g>
<g id="Shape_5_copy_3_1_">
	<g id="Shape_5_copy_3">
		<g id="g360">
			<path id="path362" fill="#FFFFFF" stroke="#030202" stroke-width="0.5" stroke-miterlimit="10" d="M190.1,95.6h-5.4
				c-2.7,0-4.9,2.2-4.9,4.9c0,2.7,2.2,4.9,4.9,4.9h5.4c2.7,0,4.9-2.2,4.9-4.9C195,97.7,192.8,95.6,190.1,95.6z"/>
		</g>
	</g>
</g>
<g id="Shape_2_copy_4_1_">
	<g id="Shape_2_copy_4">
		<g id="g366">
			<path id="path368" fill="#FFFFFF" stroke="#030202" stroke-width="0.5" stroke-miterlimit="10" d="M245.7,22.4
				c-0.8-5.2,0-9.3-0.9-10.7c-1.5-1.8-17.3-3-17.9-1c-1.2,3.4-0.8,11.2-0.3,17.4c0.4,4.8,3.2,8.6,3.2,8.6l19.1,1.5
				C248.8,38.2,246.9,30.6,245.7,22.4z"/>
		</g>
	</g>
</g>
<g id="Shape_2_copy_5_1_">
	<g id="Shape_2_copy_5">
		<g id="g372">
			<path id="path374" fill="#FFFFFF" stroke="#030202" stroke-width="0.5" stroke-miterlimit="10" d="M245.3,22.5
				c-0.7-5,0-8.8-0.8-10.2c-1.4-1.8-16.5-2.9-17.1-1c-1.1,3.3-0.8,10.9-0.3,16.8c0.4,4.5,2.7,8.2,2.7,8.2l18.5,1.2
				C248.3,37.5,246.5,30.3,245.3,22.5z"/>
		</g>
	</g>
</g>
<g id="Shape_6_copy_2_1_">
	<g id="Shape_6_copy_2">
		<g id="g384">
			
				<ellipse id="ellipse386" fill="#FFFFFF" stroke="#030202" stroke-width="0.5" stroke-miterlimit="10" cx="155.2" cy="99.9" rx="17.6" ry="14.3"/>
		</g>
	</g>
</g>
<g id="Shape_6_1_">
	<g id="Shape_6">
		<g id="g402">
			
				<ellipse id="ellipse404" fill="#FFFFFF" stroke="#030202" stroke-width="0.5" stroke-miterlimit="10" cx="155.2" cy="100.1" rx="14.7" ry="11.9"/>
		</g>
	</g>
</g>
<g id="Shape_6_copy_1_">
	<g id="Shape_6_copy">
		<g id="g408">
			
				<ellipse id="ellipse410" fill="#FFFFFF" stroke="#030202" stroke-width="0.5" stroke-miterlimit="10" cx="155.2" cy="100.1" rx="13.8" ry="11.2"/>
		</g>
	</g>
</g>
<g id="A">
	<g id="text413" transform="matrix(1.3514 0 0 1 1327.2598 560.4512)">
		<path id="path4836" fill="#FFFFFF" stroke="#030202" stroke-width="0.5" stroke-miterlimit="10" d="M-807.3-439.3l3.7-9.6h1.4
			l3.9,9.6h-1.4l-1.1-2.9h-4l-1.1,2.9H-807.3z M-804.5-443.2h3.3l-1-2.7c-0.3-0.8-0.5-1.5-0.7-2c-0.1,0.6-0.3,1.2-0.5,1.8
			L-804.5-443.2z"/>
	</g>
</g>
<g id="B">
	<g id="text416" transform="matrix(1.3514 0 0 1 1425.8994 482.2334)">
		<path id="path4839" fill="#FFFFFF" stroke="#030202" stroke-width="0.5" stroke-miterlimit="10" d="M-861-380.6v-9.6l3.7-0.2
			c0.7,0,1.3,0,1.8,0.2c0.4,0.2,0.8,0.4,1.1,0.8c0.3,0.4,0.4,0.8,0.4,1.3c0,0.4-0.1,0.8-0.3,1.2s-0.6,0.7-1,0.9
			c0.6,0.2,1.1,0.4,1.4,0.8c0.3,0.4,0.5,0.9,0.5,1.4c0,0.5-0.1,0.9-0.3,1.3s-0.4,0.7-0.7,0.9s-0.7,0.4-1.1,0.5
			c-0.4,0.1-1,0.2-1.6,0.3L-861-380.6z M-859.7-386.2l2.2-0.2c0.6,0,1-0.1,1.2-0.2c0.3-0.1,0.6-0.3,0.8-0.5s0.2-0.5,0.2-0.8
			c0-0.3-0.1-0.6-0.2-0.8s-0.4-0.3-0.7-0.4c-0.3-0.1-0.8-0.1-1.5,0l-2,0.2L-859.7-386.2L-859.7-386.2z M-859.7-381.8l2.5-0.2
			c0.4,0,0.7-0.1,0.9-0.1c0.3-0.1,0.6-0.2,0.8-0.3c0.2-0.1,0.4-0.3,0.5-0.5c0.1-0.2,0.2-0.5,0.2-0.8c0-0.4-0.1-0.6-0.3-0.9
			c-0.2-0.3-0.5-0.4-0.8-0.5c-0.3-0.1-0.8-0.1-1.4-0.1l-2.3,0.2L-859.7-381.8L-859.7-381.8z"/>
	</g>
</g>
<g id="Y">
	<g id="text419" transform="matrix(1.3514 0 0 1 1336.0654 414.2188)">
		<path id="path4918" fill="#FFFFFF" stroke="#030202" stroke-width="0.5" stroke-miterlimit="10" d="M-808.4-329.6v-4.1l-3.7-5.5
			h1.5l1.9,2.9c0.3,0.5,0.7,1.1,1,1.6c0.3-0.5,0.6-1.1,1-1.7l1.9-2.8h1.5l-3.8,5.5v4.1L-808.4-329.6L-808.4-329.6z"/>
	</g>
</g>
<g id="RB">
	<g id="text422" transform="matrix(1.3514 0 0 1 1287.4385 262.6719)">
		<path id="path4842" fill="#FFFFFF" stroke="#030202" stroke-width="0.5" stroke-miterlimit="10" d="M-784.6-215.9v-5h2.2
			c0.4,0,0.8,0,1,0.1s0.4,0.2,0.6,0.5c0.1,0.2,0.2,0.5,0.2,0.7c0,0.4-0.1,0.6-0.3,0.9c-0.2,0.2-0.6,0.4-1.1,0.5
			c0.2,0.1,0.3,0.2,0.4,0.2c0.2,0.2,0.4,0.4,0.5,0.7l0.9,1.3h-0.8l-0.7-1c-0.2-0.3-0.3-0.5-0.5-0.7s-0.2-0.3-0.3-0.3
			c-0.1-0.1-0.2-0.1-0.3-0.1c-0.1,0-0.2,0-0.4,0h-0.8v2.2H-784.6z M-784-218.7h1.4c0.3,0,0.5,0,0.7-0.1s0.3-0.2,0.4-0.3
			c0.1-0.1,0.1-0.3,0.1-0.4c0-0.2-0.1-0.4-0.3-0.6s-0.4-0.2-0.8-0.2h-1.6V-218.7z"/>
		<path id="path4844" fill="#FFFFFF" stroke="#030202" stroke-width="0.5" stroke-miterlimit="10" d="M-779.6-215.9v-5h1.9
			c0.4,0,0.7,0.1,0.9,0.1c0.2,0.1,0.4,0.3,0.5,0.5s0.2,0.4,0.2,0.7c0,0.2-0.1,0.4-0.2,0.6c-0.1,0.2-0.3,0.3-0.5,0.5
			c0.3,0.1,0.5,0.2,0.7,0.4c0.2,0.2,0.2,0.5,0.2,0.8c0,0.2,0,0.4-0.1,0.6s-0.2,0.4-0.4,0.5s-0.3,0.2-0.5,0.2s-0.5,0.1-0.8,0.1
			L-779.6-215.9L-779.6-215.9z M-779-218.8h1.1c0.3,0,0.5,0,0.6-0.1c0.2-0.1,0.3-0.1,0.4-0.2c0.1-0.1,0.1-0.3,0.1-0.4
			c0-0.2,0-0.3-0.1-0.4s-0.2-0.2-0.3-0.3s-0.4-0.1-0.8-0.1h-1L-779-218.8L-779-218.8z M-779-216.5h1.2c0.2,0,0.4,0,0.4,0
			c0.2,0,0.3-0.1,0.4-0.1c0.1-0.1,0.2-0.2,0.2-0.3s0.1-0.3,0.1-0.4c0-0.2,0-0.3-0.1-0.5c-0.1-0.1-0.2-0.2-0.4-0.3s-0.4-0.1-0.7-0.1
			h-1.1L-779-216.5L-779-216.5z"/>
	</g>
</g>
<g id="RT">
	<g id="text425" transform="matrix(1.3514 0 0 1 1309.9307 215.061)">
		<path id="path4847" fill="#FFFFFF" stroke="#030202" stroke-width="0.5" stroke-miterlimit="10" d="M-797.1-180.2v-5h2.2
			c0.4,0,0.8,0,1,0.1s0.4,0.2,0.6,0.5c0.1,0.2,0.2,0.5,0.2,0.7c0,0.4-0.1,0.6-0.3,0.9s-0.6,0.4-1.1,0.5c0.2,0.1,0.3,0.2,0.4,0.2
			c0.2,0.2,0.4,0.4,0.5,0.7l0.9,1.3h-0.8l-0.7-1c-0.2-0.3-0.3-0.5-0.5-0.7s-0.2-0.3-0.3-0.3c-0.1-0.1-0.2-0.1-0.3-0.1
			c-0.1,0-0.2,0-0.4,0h-0.8v2.2H-797.1z M-796.4-183h1.4c0.3,0,0.5,0,0.7-0.1s0.3-0.2,0.4-0.3c0.1-0.1,0.1-0.3,0.1-0.4
			c0-0.2-0.1-0.4-0.3-0.6s-0.4-0.2-0.8-0.2h-1.6V-183z"/>
		<path id="path4849" fill="#FFFFFF" stroke="#030202" stroke-width="0.5" stroke-miterlimit="10" d="M-790.8-180.2v-4.4h-1.6v-0.6
			h3.9v0.6h-1.6v4.4H-790.8z"/>
	</g>
</g>
<g id="LB">
	<g id="text428" transform="matrix(1.3514 0 0 1 670.4751 262.6719)">
		<path id="path5007" fill="#FFFFFF" stroke="#030202" stroke-width="0.5" stroke-miterlimit="10" d="M-442.2-215.9v-5h0.7v4.4h2.4
			v0.6H-442.2z"/>
		<path id="path5009" fill="#FFFFFF" stroke="#030202" stroke-width="0.5" stroke-miterlimit="10" d="M-438.4-215.9v-5h1.9
			c0.4,0,0.7,0.1,0.9,0.1c0.2,0.1,0.4,0.3,0.5,0.5s0.2,0.4,0.2,0.7c0,0.2-0.1,0.4-0.2,0.6c-0.1,0.2-0.3,0.3-0.5,0.5
			c0.3,0.1,0.5,0.2,0.7,0.4s0.2,0.5,0.2,0.8c0,0.2,0,0.4-0.1,0.6s-0.2,0.4-0.4,0.5c-0.1,0.1-0.3,0.2-0.5,0.2s-0.5,0.1-0.8,0.1
			L-438.4-215.9L-438.4-215.9z M-437.7-218.8h1.1c0.3,0,0.5,0,0.6-0.1c0.2-0.1,0.3-0.1,0.4-0.2c0.1-0.1,0.1-0.3,0.1-0.4
			c0-0.2,0-0.3-0.1-0.4s-0.2-0.2-0.3-0.3c-0.1,0-0.4-0.1-0.8-0.1h-1L-437.7-218.8L-437.7-218.8z M-437.7-216.5h1.2
			c0.2,0,0.4,0,0.4,0c0.2,0,0.3-0.1,0.4-0.1c0.1-0.1,0.2-0.2,0.2-0.3s0.1-0.3,0.1-0.4c0-0.2,0-0.3-0.1-0.5s-0.2-0.2-0.4-0.3
			s-0.4-0.1-0.7-0.1h-1.1L-437.7-216.5L-437.7-216.5z"/>
	</g>
</g>
<g id="LT">
	<g id="text431" transform="matrix(1.3514 0 0 1 652.1509 215.061)">
		<path id="path5012" fill="#FFFFFF" stroke="#030202" stroke-width="0.5" stroke-miterlimit="10" d="M-432.1-180.2v-5h0.7v4.4h2.4
			v0.6H-432.1z"/>
		<path id="path5014" fill="#FFFFFF" stroke="#030202" stroke-width="0.5" stroke-miterlimit="10" d="M-426.9-180.2v-4.4h-1.6v-0.6
			h3.9v0.6h-1.6v4.4H-426.9z"/>
	</g>
</g>
<g id="X">
	<g id="text434" transform="matrix(1.3514 0 0 1 1234.0254 492.4365)">
		<path id="path4915" fill="#FFFFFF" stroke="#030202" stroke-width="0.5" stroke-miterlimit="10" d="M-755.5-388.3l3.7-5l-3.3-4.6
			h1.5l1.7,2.5c0.4,0.5,0.6,0.9,0.8,1.2c0.2-0.4,0.5-0.7,0.8-1.1l1.9-2.6h1.4l-3.4,4.5l3.6,5.1h-1.6l-2.4-3.4
			c-0.1-0.2-0.3-0.4-0.4-0.6c-0.2,0.4-0.4,0.6-0.5,0.7l-2.4,3.4L-755.5-388.3L-755.5-388.3z"/>
	</g>
</g>
<g id="Shape_28_1_">
	<g id="Shape_28">
		<g id="g438">
			<polygon id="polygon440" fill="#FFFFFF" stroke="#030202" stroke-width="0.5" stroke-miterlimit="10" points="156.4,98 
				145.8,92.1 145.6,92.2 153.3,100.4 165,107.8 165.2,107.6 			"/>
		</g>
	</g>
</g>
<g id="Shape_28_copy_1_">
	<g id="Shape_28_copy">
		<g id="g444">
			<polygon id="polygon446" fill="#FFFFFF" stroke="#030202" stroke-width="0.5" stroke-miterlimit="10" points="164.3,91.8 
				153.7,98 144.9,107.6 145.1,107.8 156.8,100.4 164.5,92 			"/>
		</g>
	</g>
</g>
<g id="g4804" transform="matrix(-1,0,0,1,2006.2538,-0.15857603)">
	<g id="g4806">
		<path id="path4808" fill="#FFFFFF" stroke="#030202" stroke-width="0.5" stroke-miterlimit="10" d="M1777.7,11.3
			c-0.2,0.5-0.1,8.5-0.5,14.2s-1.6,10.9-1.6,10.9l0.8,0c0,0,1.4-7.6,1.5-10.8s0.4-13.6,0.6-14c0.2-0.4,0.2-0.4,0.2-0.4s0,0-0.2-0.2
			c-0.2-0.1-0.6-0.3-0.6-0.3S1777.9,10.8,1777.7,11.3L1777.7,11.3z"/>
	</g>
</g>
</svg>
