<?xml version="1.0" encoding="utf-8"?>
<!-- Generator: Adobe Illustrator 17.1.0, SVG Export Plug-In . SVG Version: 6.00 Build 0)  -->
<!DOCTYPE svg PUBLIC "-//W3C//DTD SVG 1.0//EN" "http://www.w3.org/TR/2001/REC-SVG-20010904/DTD/svg10.dtd">
<svg version="1.0" id="Layer_1" xmlns="http://www.w3.org/2000/svg" xmlns:xlink="http://www.w3.org/1999/xlink" x="0px" y="0px"
	 viewBox="0 0 166.492 86.996" enable-background="new 0 0 166.492 86.996" xml:space="preserve">
<path opacity="0.5" fill="none" stroke="#020202" stroke-miterlimit="10" d="M151.768,69.043c0,4.418-3.582,8-8,8h-48
	c-4.418,0-8-3.582-8-8v-48c0-4.418,3.582-8,8-8h48c4.418,0,8,3.582,8,8V69.043z"/>
<path opacity="0.8" fill="none" stroke="#020202" stroke-miterlimit="10" d="M124.496,39.197v-5.715
	c1.253-0.325,2.182-1.453,2.182-2.807v-0.243c0-1.607-1.303-2.909-2.91-2.909h-8.001c-1.607,0-2.91,1.303-2.91,2.909v0.243
	c0,1.354,0.929,2.482,2.182,2.807v5.715c-4.212,1.829-7.16,6.021-7.16,10.906c0,6.566,5.323,11.888,11.888,11.888
	s11.888-5.323,11.888-11.888C131.656,45.219,128.708,41.026,124.496,39.197z M119.768,59.63c-5.195,0-9.407-4.212-9.407-9.407
	s4.212-1.551,9.407-1.551s9.407-3.645,9.407,1.551S124.963,59.63,119.768,59.63z"/>
<circle fill="#FFFFFF" stroke="#030303" stroke-width="0.7628" stroke-miterlimit="10" cx="42.904" cy="41.241" r="10.531"/>
<path opacity="0.5" fill="#FFFFFF" stroke="#030303" stroke-width="0.7628" stroke-miterlimit="10" d="M65.019,43.347h-7.372
	c-1.454,0-2.633-1.179-2.633-2.633s1.179-2.633,2.633-2.633h7.372c1.454,0,2.633,1.179,2.633,2.633S66.473,43.347,65.019,43.347z"/>
<path opacity="0.5" fill="#FFFFFF" stroke="#030303" stroke-width="0.7628" stroke-miterlimit="10" d="M28.335,43.347h-7.372
	c-1.454,0-2.633-1.179-2.633-2.633s1.179-2.633,2.633-2.633h7.372c1.454,0,2.633,1.179,2.633,2.633S29.789,43.347,28.335,43.347z"/>
<path fill="#FFFFFF" stroke="#030303" stroke-width="0.7628" stroke-miterlimit="10" d="M49.55,59.436
	c0.344-0.543,0.55-1.182,0.55-1.872c0-1.938-1.571-3.51-3.51-3.51h-7.372c-1.939,0-3.51,1.572-3.51,3.51
	c0,0.69,0.206,1.329,0.55,1.872c-0.344,0.543-0.55,1.182-0.55,1.872c0,0.434,0.089,0.845,0.233,1.229
	c-0.144,0.384-0.233,0.795-0.233,1.229c0,1.938,1.572,3.51,3.51,3.51h0.357c0.563,1.24,1.806,2.106,3.257,2.106
	c1.451,0,2.693-0.866,3.257-2.106h0.502c1.939,0,3.51-1.572,3.51-3.51c0-0.434-0.089-0.845-0.233-1.229
	c0.144-0.384,0.233-0.795,0.233-1.229C50.1,60.618,49.894,59.979,49.55,59.436z"/>
<path opacity="0.5" fill="#FFFFFF" stroke="#030303" stroke-width="0.7628" stroke-miterlimit="10" d="M42.904,28.954
	c-1.454,0-2.633-1.179-2.633-2.633v-7.372c0-1.454,1.179-2.633,2.633-2.633s2.633,1.179,2.633,2.633v7.372
	C45.536,27.775,44.358,28.954,42.904,28.954z"/>
<path opacity="0.5" fill="#FFFFFF" stroke="#030303" stroke-width="0.7628" stroke-miterlimit="10" d="M53.11,32.938
	c-0.674,0-1.348-0.257-1.862-0.771c-1.028-1.028-1.028-2.695,0-3.723l5.213-5.213c1.028-1.028,2.695-1.028,3.723,0
	c1.028,1.028,1.028,2.695,0,3.723l-5.213,5.213C54.458,32.681,53.784,32.938,53.11,32.938z"/>
<path opacity="0.5" fill="#FFFFFF" stroke="#030303" stroke-width="0.7628" stroke-miterlimit="10" d="M32.521,33.316
	c-0.674,0-1.348-0.257-1.862-0.771l-5.213-5.213c-1.028-1.028-1.028-2.695,0-3.723c1.028-1.028,2.695-1.028,3.723,0l5.213,5.213
	c1.028,1.028,1.028,2.695,0,3.723C33.869,33.059,33.195,33.316,32.521,33.316z"/>
<path opacity="0.5" fill="#FFFFFF" stroke="#030303" stroke-width="0.7628" stroke-miterlimit="10" d="M58.911,59.482
	c-0.674,0-1.348-0.257-1.862-0.771l-5.213-5.213c-1.028-1.028-1.028-2.695,0-3.723c1.028-1.028,2.695-1.028,3.723,0l5.213,5.213
	c1.028,1.028,1.028,2.695,0,3.723C60.259,59.225,59.585,59.482,58.911,59.482z"/>
<path opacity="0.5" fill="#FFFFFF" stroke="#030303" stroke-width="0.7628" stroke-miterlimit="10" d="M26.843,59.28
	c-0.674,0-1.348-0.257-1.862-0.771c-1.028-1.028-1.028-2.695,0-3.723l5.213-5.213c1.028-1.028,2.695-1.028,3.723,0
	c1.028,1.028,1.028,2.695,0,3.723l-5.213,5.213C28.191,59.023,27.517,59.28,26.843,59.28z"/>
</svg>
