<?xml version="1.0" encoding="utf-8"?>
<!-- Generator: Adobe Illustrator 17.1.0, SVG Export Plug-In . SVG Version: 6.00 Build 0)  -->
<!DOCTYPE svg PUBLIC "-//W3C//DTD SVG 1.1//EN" "http://www.w3.org/Graphics/SVG/1.1/DTD/svg11.dtd">
<svg version="1.1" id="Layer_1" xmlns="http://www.w3.org/2000/svg" xmlns:xlink="http://www.w3.org/1999/xlink" x="0px" y="0px"
	 viewBox="0 0 423 176" enable-background="new 0 0 423 176" xml:space="preserve">
<g>
	
		<image overflow="visible" opacity="0.25" enable-background="new    " width="892" height="688" xlink:href="78774FC315D7749A.png"  transform="matrix(0.2387 0 0 0.239 16.2133 6.1023)">
	</image>
	<g>
		<path fill="#FFFFFF" stroke="#000000" stroke-width="0.5" stroke-miterlimit="10" d="M227.5,162.3c0,3-2.5,5.5-5.5,5.5H23.2
			c-3,0-5.5-2.5-5.5-5.5V12.1c0-3,2.5-5.5,5.5-5.5H222c3,0,5.5,2.5,5.5,5.5V162.3z"/>
	</g>
</g>
<rect x="32.1" y="109.1" fill="#FFFFFF" stroke="#000000" stroke-width="0.5" stroke-miterlimit="10" width="10.7" height="11.1"/>
<rect x="32.1" y="109.1" opacity="0.5" fill="#FFFFFF" stroke="#000000" stroke-width="0.5" stroke-miterlimit="10" enable-background="new    " width="10.7" height="11.1"/>
<circle fill="#FFFFFF" stroke="#000000" stroke-width="0.5" stroke-miterlimit="10" cx="220.6" cy="13.4" r="4.1"/>
<path fill="#FFFFFF" stroke="#000000" stroke-width="0.5" stroke-miterlimit="10" d="M222.5,15.3c-0.3,0.3-0.9,0.3-1.2,0l-2.6-2.6
	c-0.3-0.3-0.3-0.9,0-1.2l0,0c0.3-0.3,0.9-0.3,1.2,0l2.6,2.6C222.8,14.4,222.8,15,222.5,15.3L222.5,15.3z"/>
<path fill="#FFFFFF" stroke="#000000" stroke-width="0.5" stroke-miterlimit="10" d="M222.5,11.5c0.3,0.3,0.3,0.9,0,1.2l-2.6,2.6
	c-0.3,0.3-0.9,0.3-1.2,0l0,0c-0.3-0.3-0.3-0.9,0-1.2l2.6-2.6C221.6,11.1,222.2,11.1,222.5,11.5L222.5,11.5z"/>
<path fill="#FFFFFF" stroke="#000000" stroke-width="0.5" stroke-miterlimit="10" d="M217.7,139.6c0,1.7-1.4,3.1-3.1,3.1H169
	c-1.7,0-3.1-1.4-3.1-3.1v-4.4c0-1.7,1.4-3.1,3.1-3.1h45.5c1.7,0,3.1,1.4,3.1,3.1V139.6z"/>
<path fill="#FFFFFF" stroke="#000000" stroke-width="0.5" d="M160.2,139.6c0,1.7-1.4,3.1-3.1,3.1h-45.5c-1.7,0-3.1-1.4-3.1-3.1v-4.4
	c0-1.7,1.4-3.1,3.1-3.1h45.5c1.7,0,3.1,1.4,3.1,3.1V139.6z"/>
<path fill="#FFFFFF" stroke="#000000" stroke-width="0.5" stroke-miterlimit="10" d="M122.4,59.5c0,1.6-1.4,2.8-3.1,2.8H32.2
	c-1.7,0-3.1-1.3-3.1-2.8v-5.3c0-1.6,1.4-2.8,3.1-2.8h87.1c1.7,0,3.1,1.3,3.1,2.8L122.4,59.5L122.4,59.5z"/>
<path fill="#FFFFFF" stroke="#000000" stroke-width="0.5" stroke-miterlimit="10" d="M122.4,42c0,1.6-1.4,2.8-3.1,2.8H32.2
	c-1.7,0-3.1-1.3-3.1-2.8v-5.3c0-1.6,1.4-2.8,3.1-2.8h87.1c1.7,0,3.1,1.3,3.1,2.8L122.4,42L122.4,42z"/>
<path fill="#FFFFFF" stroke="#000000" stroke-width="0.5" stroke-miterlimit="10" d="M37.1,73c0,1.4-1.2,2.6-2.6,2.6h-2.9
	c-1.4,0-2.6-1.2-2.6-2.6v-2.9c0-1.4,1.2-2.6,2.6-2.6h2.9c1.4,0,2.6,1.2,2.6,2.6V73z"/>
<path fill="#FFFFFF" stroke="#000000" stroke-width="0.5" stroke-miterlimit="10" d="M37.1,86.5c0,1.4-1.2,2.6-2.6,2.6h-2.9
	c-1.4,0-2.6-1.2-2.6-2.6v-2.9c0-1.4,1.2-2.6,2.6-2.6h2.9c1.4,0,2.6,1.2,2.6,2.6V86.5z"/>
<polyline fill="#FFFFFF" stroke="#000000" stroke-width="0.5" stroke-linecap="round" stroke-linejoin="round" stroke-miterlimit="10" points="
	30.8,84.9 32.5,86.6 35.4,83.6 "/>
<path fill="#FFFFFF" stroke="#000000" stroke-width="0.5" stroke-miterlimit="10" d="M65,96.7c0,1.9-1.5,3.4-3.4,3.4H33
	c-1.9,0-3.4-1.5-3.4-3.4l0,0c0-1.9,1.5-3.4,3.4-3.4h28.6C63.5,93.4,65,94.9,65,96.7L65,96.7z"/>
<polyline fill="#FFFFFF" stroke="#000000" stroke-width="0.5" stroke-linecap="round" stroke-linejoin="round" stroke-miterlimit="10" points="
	113.8,38.3 116.5,40.8 119.1,38.3 "/>
<line fill="#FFFFFF" stroke="#000000" stroke-width="0.5" stroke-miterlimit="10" x1="110.8" y1="35.7" x2="110.8" y2="43"/>
<path fill="#FFFFFF" stroke="#000000" stroke-width="0.5" stroke-miterlimit="10" d="M217.7,88.2c0,2-1.6,3.6-3.6,3.6l0,0
	c-2,0-3.6-1.6-3.6-3.6V39c0-2,1.6-3.6,3.6-3.6l0,0c2,0,3.6,1.6,3.6,3.6V88.2z"/>
<text transform="matrix(1 0 0 1 22.5918 16.1972)" font-family="'MyriadPro-Regular'" font-size="7.1175">Window Title</text>
<g>
	
		<image overflow="visible" opacity="0.25" enable-background="new    " width="658" height="450" xlink:href="78774FC315D7749F.png"  transform="matrix(0.2378 0 0 0.2384 246.7475 42.1197)">
	</image>
	<g>
		<path fill="#FFFFFF" stroke="#000000" stroke-width="0.5" stroke-miterlimit="10" d="M401.7,143.4c0,1.9-1.6,3.5-3.5,3.5H251.7
			c-1.9,0-3.5-1.6-3.5-3.5V46.1c0-1.9,1.6-3.5,3.5-3.5h146.4c1.9,0,3.5,1.6,3.5,3.5V143.4z"/>
	</g>
</g>
<rect x="258.2" y="57.2" fill="#FFFFFF" fill-opacity="0.5" stroke="#000000" stroke-width="0.5" stroke-miterlimit="10" width="78.7" height="78.7"/>
<rect x="258.2" y="57.2" opacity="0.7" fill="#FFFFFF" fill-opacity="0.5" stroke="#000000" stroke-width="0.5" stroke-miterlimit="10" enable-background="new    " width="78.7" height="78.7"/>
<g>
	
		<circle fill="#FFFFFF" stroke="#000000" stroke-width="0.5" stroke-miterlimit="10" stroke-opacity="0.5" cx="276" cy="82" r="2.3"/>
	<circle fill="#FFFFFF" stroke="#000000" stroke-width="0.5" stroke-miterlimit="10" stroke-opacity="0.5" cx="276" cy="82" r="3"/>
</g>
<rect x="341.5" y="57.2" fill="#FFFFFF" stroke="#000000" stroke-width="0.5" stroke-miterlimit="10" width="9.5" height="78.7"/>
<polygon fill="#FFFFFF" stroke="#000000" stroke-width="0.5" stroke-miterlimit="10" points="354.1,85 354.1,88.7 350.9,86.9 "/>
<polygon fill="#FFFFFF" stroke="#000000" stroke-width="0.5" stroke-miterlimit="10" points="338.3,85 338.3,88.7 341.5,86.9 "/>
<line fill="#FFFFFF" stroke="#000000" stroke-width="0.5" stroke-miterlimit="10" x1="341.5" y1="86.9" x2="350.9" y2="86.9"/>
<g>
	<text transform="matrix(1 0 0 1 33.0571 41.579)" fill="#FFFFFF" font-family="'MyriadPro-Regular'" font-size="5.984">Selection Item</text>
</g>
<text transform="matrix(1 0 0 1 184.0571 139.3697)" font-family="'MyriadPro-Regular'" font-size="5.984">Cancel</text>
<text transform="matrix(1 0 0 1 130.7238 139.3697)" font-family="'MyriadPro-Regular'" font-size="5.984">OK</text>
<circle fill="#FFFFFF" stroke="#000000" stroke-width="0.5" stroke-miterlimit="10" cx="33.1" cy="96.7" r="3.4"/>
<path fill="#FFFFFF" stroke="#000000" stroke-width="0.5" stroke-miterlimit="10" d="M44.6,117.5c0,2.3-1.8,4.1-4.1,4.1h-5.8
	c-2.3,0-4.1-1.8-4.1-4.1v-5.8c0-2.3,1.8-4.1,4.1-4.1h5.8c2.3,0,4.1,1.8,4.1,4.1L44.6,117.5L44.6,117.5z M42.6,112.5
	c0-1.6-1.3-2.9-2.9-2.9h-4.2c-1.6,0-2.9,1.3-2.9,2.9v4.2c0,1.6,1.3,2.9,2.9,2.9h4.2c1.6,0,2.9-1.3,2.9-2.9V112.5z"/>
<path fill="#FFFFFF" stroke="#000000" stroke-width="0.5" stroke-miterlimit="10" d="M83.9,141.2c0,2-1.6,3.6-3.6,3.6H35.7
	c-2,0-3.6-1.6-3.6-3.6v-6.9c0-2,1.6-3.6,3.6-3.6h44.5c2,0,3.6,1.6,3.6,3.6L83.9,141.2L83.9,141.2z"/>
<rect x="35.6" y="130.6" fill="#FFFFFF" stroke="#000000" stroke-width="0.5" stroke-miterlimit="10" width="14.2" height="14.2"/>
</svg>
