<?xml version="1.0" encoding="utf-8"?>
<!-- Generator: Adobe Illustrator 17.0.0, SVG Export Plug-In . SVG Version: 6.00 Build 0)  -->
<!DOCTYPE svg PUBLIC "-//W3C//DTD SVG 1.0//EN" "http://www.w3.org/TR/2001/REC-SVG-20010904/DTD/svg10.dtd">
<svg version="1.0" id="Layer_1" xmlns="http://www.w3.org/2000/svg" xmlns:xlink="http://www.w3.org/1999/xlink" x="0px" y="0px"
	 width="291.57px" height="176.49px" viewBox="0 0 291.57 176.49" enable-background="new 0 0 291.57 176.49" xml:space="preserve">
<path fill="#010101" d="M285.564,0H99.208c-3.317,0-6.006,2.689-6.006,6.006v124.793c0,3.317,2.689,6.006,6.006,6.006h186.356
	c3.317,0,6.006-2.689,6.006-6.006V6.006C291.57,2.689,288.88,0,285.564,0z M284.729,112.28h-184.52V6.84h184.52V112.28z"/>
<path fill="#969696" d="M93.202,118.904v12.179c0,3.317,2.689,6.006,6.006,6.006h186.356c3.317,0,6.006-2.689,6.006-6.006v-12.179
	C291.57,118.904,93.202,118.904,93.202,118.904z"/>
<g>
	<rect x="160.27" y="159.278" fill="#676767" width="64.232" height="1.835"/>
	<polygon fill="#ABABAB" points="224.501,159.278 160.437,159.278 168.945,151.771 215.826,151.771 	"/>
	<polygon fill="#888888" points="215.826,151.771 168.945,151.771 170.78,137.089 214.158,137.089 	"/>
</g>
<circle fill="#676767" cx="192.636" cy="128.413" r="4.505"/>
<rect x="100.209" y="6.84" fill="#434343" width="184.52" height="105.44"/>
<rect x="100.209" y="6.84" fill="#262626" width="184.52" height="7.873"/>
<rect x="100.209" y="90.046" fill="#C4C4C3" width="151.955" height="22.234"/>
<rect x="252.164" y="90.046" fill="#686868" width="32.565" height="22.234"/>
<rect x="127.831" y="14.713" fill="#686868" width="124.333" height="75.333"/>
<rect x="100.209" y="90.046" fill="#333333" width="184.52" height="4.333"/>
<rect x="100.376" y="14.713" fill="#333333" width="27.455" height="4.333"/>
<path fill="#939393" d="M272.051,96.234c0,1.185-0.895,2.145-2,2.145h-108.45c-1.105,0-2-0.961-2-2.145v-68.42
	c0-1.185,0.895-2.145,2-2.145H270.05c1.105,0,2,0.961,2,2.145v68.42H272.051z"/>
<rect x="159.601" y="30.379" fill="#262626" width="112.449" height="76.5"/>
<circle fill="#EE2B24" cx="162.535" cy="28.266" r="1.437"/>
<circle fill="#FFCA31" cx="166.409" cy="28.266" r="1.437"/>
<circle fill="#87C540" cx="170.249" cy="28.266" r="1.437"/>
<circle fill="#443D3C" cx="214.831" cy="69.046" r="31.214"/>
<g>
	<polygon fill="#E92629" points="232.602,73.858 227.724,76.722 227.724,55.976 232.663,53.363 232.651,57.519 	"/>
	<polygon fill="#99519D" points="219.668,87.027 214.743,84.211 232.641,73.857 237.376,76.825 	"/>
	<polygon fill="#FAE300" points="209.72,51.258 214.608,53.987 196.777,64.517 192.016,61.593 206.301,53.254 	"/>
	<polygon fill="#F69C21" points="227.724,55.976 227.724,61.368 209.72,51.258 209.893,45.672 218.13,50.432 	"/>
	<polygon fill="#447DC0" points="201.719,82.401 201.676,76.739 219.668,87.027 219.489,92.612 	"/>
	<polygon fill="#6DBD46" points="196.761,64.521 201.628,61.637 201.712,82.382 196.783,85.015 	"/>
</g>
<rect x="0" y="77.09" fill="#171617" width="139.333" height="83.368"/>
<rect x="0" y="157.157" fill="#262626" width="139.333" height="19.333"/>
<rect x="4.667" y="81.477" fill="#3375BB" width="130.667" height="72.179"/>
<rect x="4.667" y="150.055" fill="#244F7D" width="130.667" height="3.601"/>
<rect x="53.25" y="98.915" fill="#262626" width="59.417" height="40.551"/>
<rect x="53.25" y="93.649" fill="#0E4E6D" width="59.417" height="5.716"/>
<rect x="102.876" y="93.649" fill="#C34027" width="8.538" height="3.615"/>
<rect x="97.004" y="93.649" fill="#237596" width="5.078" height="3.615"/>
<rect x="91.128" y="93.649" fill="#237596" width="5.078" height="3.615"/>
<circle fill="#443D3C" cx="84.014" cy="119.521" r="17.195"/>
<g>
	<polygon fill="#E92629" points="93.805,122.172 91.117,123.749 91.117,112.321 93.838,110.881 	"/>
	<polygon fill="#99519D" points="86.679,129.427 83.965,127.875 93.826,122.171 96.434,123.806 	"/>
	<polygon fill="#FAE300" points="81.199,109.721 83.892,111.225 74.068,117.026 71.445,115.415 	"/>
	<polygon fill="#F69C21" points="91.117,112.321 91.117,115.291 81.199,109.721 81.294,106.644 	"/>
	<polygon fill="#447DC0" points="76.791,126.878 76.767,123.759 86.679,129.427 86.58,132.503 	"/>
	<polygon fill="#6DBD46" points="74.06,117.028 76.741,115.439 76.787,126.868 74.072,128.318 	"/>
</g>
</svg>
