<?xml version="1.0" encoding="utf-8"?>
<!-- Generator: Adobe Illustrator 17.0.0, SVG Export Plug-In . SVG Version: 6.00 Build 0)  -->
<!DOCTYPE svg PUBLIC "-//W3C//DTD SVG 1.0//EN" "http://www.w3.org/TR/2001/REC-SVG-20010904/DTD/svg10.dtd">
<svg version="1.0" id="Layer_1" xmlns="http://www.w3.org/2000/svg" xmlns:xlink="http://www.w3.org/1999/xlink" x="0px" y="0px"
	 width="307.042px" height="192.958px" viewBox="0 0 307.042 192.958" enable-background="new 0 0 307.042 192.958"
	 xml:space="preserve">
<g id="Shape_7_copy_1_">
	<g id="Shape_7_copy">
		<g id="g6">
			<path id="path8" fill="#AF5238" stroke="#030202" stroke-miterlimit="10" d="M192.369,33.214
				c-0.359-3.346-0.818-4.48-2.238-5.834c-1.685-1.606-3.329-2.245-7.557-2.534c-13.054-0.893-39.461-1.119-53.553-0.294
				c-5.189,0.304-6.057-0.203-8.585,1.801c-1.807,1.432-2.342,2.893-2.952,5.606c-1.171,5.206-1.797,11.646-1.797,11.646h77.106
				C192.793,43.605,192.895,38.12,192.369,33.214z"/>
		</g>
	</g>
</g>
<g id="Shape_7_copy_2_1_">
	<g id="Shape_7_copy_2">
		<g id="g12">
			<path id="path14" fill="#AF5238" stroke="#030202" stroke-miterlimit="10" d="M191.813,33.648
				c-0.353-3.297-0.806-4.415-2.206-5.749c-1.66-1.583-3.28-2.213-7.446-2.497c-12.863-0.88-38.885-1.103-52.772-0.29
				c-5.113,0.299-5.969-0.2-8.46,1.775c-1.78,1.411-2.308,2.85-2.909,5.525c-1.153,5.13-1.77,11.476-1.77,11.476h75.981
				C192.23,43.887,192.331,38.482,191.813,33.648z"/>
		</g>
	</g>
</g>
<g id="Shape_30_1_">
	<g id="Shape_30">
		<g id="g18">
			<path id="path20" fill="#AF5238" stroke="#030202" stroke-miterlimit="10" d="M167.956,28.616h-26.647
				c-1.381,0-2.5,1.347-2.5,3.009v1.873c0,1.662,1.119,3.009,2.5,3.009h26.647c1.38,0,2.5-1.347,2.5-3.009v-1.873
				C170.456,29.964,169.336,28.616,167.956,28.616z"/>
		</g>
	</g>
</g>
<g id="Shape_31_1_">
	<g id="Shape_31">
		<g id="g24">
			<rect id="rect26" x="117.791" y="32.27" fill="#AF5238" stroke="#030202" stroke-miterlimit="10" width="74.267" height="0.25"/>
		</g>
	</g>
</g>
<g id="Shape_30_copy_1_">
	<g id="Shape_30_copy">
		<g id="g30">
			<path id="path32" fill="#AF5238" stroke="#030202" stroke-miterlimit="10" d="M167.651,28.951h-26.037
				c-1.349,0-2.443,1.233-2.443,2.755v1.714c0,1.521,1.094,2.755,2.443,2.755h26.037c1.349,0,2.443-1.233,2.443-2.755v-1.714
				C170.093,30.184,169,28.951,167.651,28.951z"/>
		</g>
	</g>
</g>
<g id="Shape_1_1_">
	<g id="Shape_1">
		<g id="g42">
			<path id="path44" connector-curvature="0" fill="#AF5238" stroke="#030202" stroke-miterlimit="10" d="M290.011,97.53
				c0,0-11.421-34.204-17.857-43.642c-8.504-12.469-21.359-26.514-26.178-28.498c-4.819-1.984-20.408-2.325-24.376-0.625
				c-3.968,1.701-16.915,13.286-26.836,16.12s-68.018,1.417-75.955,0.284c-7.936-1.133-11.938-1.359-18.741-5.893
				S89.872,25.173,87.605,24.039c-2.267-1.133-18.874-0.975-23.126,0.725c-4.252,1.701-18.357,15.17-28.845,32.457
				c-10.488,17.287-21.674,55.264-22.743,64.114c-1.984,16.437-1.034,29.84-0.534,32.59c0.5,2.75,4.24,21.661,18.232,27.548
				c18.129,7.627,43.918-8.035,62.374-15.264c19.232-7.533,23.758-6.899,37.182-6.899c26.644,0,24.654-0.283,51.304-0.283
				c27.211,0,49.853,14.328,62.325,19.146c12.472,4.818,21.609,8.277,33.514,0.625s16.69-22.321,18.391-37.058
				S290.011,97.53,290.011,97.53z"/>
		</g>
	</g>
</g>
<g id="Shape_16_copy_2_1_">
	<g id="Shape_16_copy_2">
		<g id="g48">
			
				<ellipse id="ellipse50" fill="#AF5238" stroke="#030202" stroke-miterlimit="10" cx="110.997" cy="138.99" rx="33.041" ry="26.837"/>
		</g>
	</g>
</g>
<g id="Shape_16_copy_3_1_">
	<g id="Shape_16_copy_3">
		<g id="g54">
			
				<ellipse id="ellipse56" fill="#AF5238" stroke="#030202" stroke-miterlimit="10" cx="110.997" cy="138.99" rx="31.854" ry="25.873"/>
		</g>
	</g>
</g>
<g id="Shape_16_copy_4_1_">
	<g id="Shape_16_copy_4">
		<g id="g60">
			
				<ellipse id="ellipse62" fill="#AF5238" stroke="#030202" stroke-miterlimit="10" cx="195.393" cy="139.342" rx="30.418" ry="22.581"/>
		</g>
	</g>
</g>
<g id="Shape_16_copy_5_1_">
	<g id="Shape_16_copy_5">
		<g id="g66">
			
				<ellipse id="ellipse68" fill="#AF5238" stroke="#030202" stroke-miterlimit="10" cx="195.393" cy="139.342" rx="29.325" ry="21.77"/>
		</g>
	</g>
</g>
<g id="Shape_16_copy_6_1_">
	<g id="Shape_16_copy_6">
		<g id="g72">
			<path id="path74" fill="#AF5238" stroke="#030202" stroke-miterlimit="10" d="M69.669,73.746
				c-17.632-3.12-33.534,5.312-35.518,18.832c-1.984,13.521,10.699,27.011,28.331,30.13S96.016,117.397,98,103.876
				C99.985,90.355,87.301,76.866,69.669,73.746z"/>
		</g>
	</g>
</g>
<g id="Shape_16_copy_7_1_">
	<g id="Shape_16_copy_7">
		<g id="g78">
			<path id="path80" fill="#AF5238" stroke="#030202" stroke-miterlimit="10" d="M69.54,74.625
				c-16.998-3.008-32.328,5.12-34.242,18.156c-1.913,13.035,10.315,26.04,27.313,29.047s32.329-5.12,34.242-18.156
				C98.767,90.638,86.538,77.633,69.54,74.625z"/>
		</g>
	</g>
</g>
<g id="Shape_16_1_">
	<g id="Shape_16">
		<g id="g84">
			
				<ellipse id="ellipse86" fill="#AF5238" stroke="#030202" stroke-miterlimit="10" cx="110.598" cy="142.59" rx="28.07" ry="23.238"/>
		</g>
	</g>
</g>
<g id="Shape_16_copy_1_">
	<g id="Shape_16_copy">
		<g id="g90">
			
				<ellipse id="ellipse92" fill="#AF5238" stroke="#030202" stroke-miterlimit="10" cx="110.598" cy="142.59" rx="27.062" ry="22.403"/>
		</g>
	</g>
</g>
<g id="Shape_12_1_">
	<g id="Shape_12">
		<g id="g96">
			
				<ellipse id="ellipse98" fill="#AF5238" stroke="#030202" stroke-miterlimit="10" cx="194.954" cy="143.44" rx="20.873" ry="15.091"/>
		</g>
	</g>
</g>
<g id="Shape_12_copy_6_1_">
	<g id="Shape_12_copy_6">
		<g id="g102">
			
				<ellipse id="ellipse104" fill="#AF5238" stroke="#030202" stroke-miterlimit="10" cx="194.954" cy="143.44" rx="20.283" ry="14.664"/>
		</g>
	</g>
</g>
<g id="Shape_12_copy_1_">
	<g id="Shape_12_copy">
		<g id="g108">
			
				<ellipse id="ellipse110" fill="#AF5238" stroke="#030202" stroke-miterlimit="10" cx="195.34" cy="151.942" rx="18.707" ry="15.091"/>
		</g>
	</g>
</g>
<g id="Shape_12_copy_7_1_">
	<g id="Shape_12_copy_7">
		<g id="g114">
			
				<ellipse id="ellipse116" fill="#AF5238" stroke="#030202" stroke-miterlimit="10" cx="195.34" cy="151.942" rx="17.777" ry="14.34"/>
		</g>
	</g>
</g>
<g id="Shape_12_copy_8_1_">
	<g id="Shape_12_copy_8">
		<g id="g120">
			
				<ellipse id="ellipse122" fill="#AF5238" stroke="#030202" stroke-miterlimit="10" cx="195.873" cy="153.292" rx="11.474" ry="9.256"/>
		</g>
	</g>
</g>
<g id="Shape_12_copy_4_1_">
	<g id="Shape_12_copy_4">
		<g id="g126">
			
				<ellipse id="ellipse128" fill="#AF5238" stroke="#030202" stroke-miterlimit="10" cx="111.044" cy="143.08" rx="23.486" ry="19.342"/>
		</g>
	</g>
</g>
<g id="Shape_12_copy_5_1_">
	<g id="Shape_12_copy_5">
		<g id="g132">
			
				<ellipse id="ellipse134" fill="#AF5238" stroke="#030202" stroke-miterlimit="10" cx="111.044" cy="143.079" rx="22.882" ry="18.844"/>
		</g>
	</g>
</g>
<g id="Shape_15_1_">
	<g id="Shape_15">
		<g id="g138">
			
				<ellipse id="ellipse140" fill="#AF5238" stroke="#030202" stroke-miterlimit="10" cx="110.518" cy="145.452" rx="21.885" ry="17.742"/>
		</g>
	</g>
</g>
<g id="Shape_15_copy_1_">
	<g id="Shape_15_copy">
		<g id="g144">
			
				<ellipse id="ellipse146" fill="#AF5238" stroke="#030202" stroke-miterlimit="10" cx="110.518" cy="145.452" rx="21.184" ry="17.174"/>
		</g>
	</g>
</g>
<g id="Shape_14_1_">
	<g id="Shape_14">
		<g id="g150">
			<path id="path152" fill="#AF5238" stroke="#030202" stroke-miterlimit="10" d="M131.546,140.47c0,0-7.335-0.171-10.308-3.356
				c-2.973-3.185-2.85-8.276-2.85-8.276s-4.115-1.045-7.868-1.15c-3.889-0.108-7.593,1.153-7.593,1.153s0.425,5.423-2.548,8.607
				c-2.973,3.184-10.614,2.723-10.614,2.723s-1.028,2.56-1.028,5.214c0,2.858,1.2,5.911,1.2,5.911s7.51-0.506,10.271,2.254
				c2.761,2.76,2.463,8.44,2.463,8.44s4.456,1.2,8.539,1.2c4.197,0,8.538-1.714,8.538-1.714s-0.674-2.659,2.511-7.329
				s9.418-4.254,9.418-4.254s0.566-2.107,0.618-4.509C132.348,142.905,131.546,140.47,131.546,140.47z"/>
		</g>
	</g>
</g>
<g id="Shape_14_copy_1_">
	<g id="Shape_14_copy">
		<g id="g156">
			<path id="path158" fill="#AF5238" stroke="#030202" stroke-miterlimit="10" d="M130.962,140.608c0,0-7.132-0.167-10.022-3.263
				c-2.891-3.096-2.771-8.047-2.771-8.047s-4.001-1.016-7.65-1.117c-3.782-0.105-7.382,1.121-7.382,1.121s0.413,5.272-2.477,8.368
				c-2.891,3.096-10.319,2.648-10.319,2.648s-1,2.489-1,5.07c0,2.779,1.167,5.747,1.167,5.747s7.302-0.492,9.986,2.191
				c2.684,2.683,2.394,8.206,2.394,8.206s4.333,1.167,8.302,1.167c4.081,0,8.301-1.667,8.301-1.667s-0.656-2.585,2.441-7.126
				c3.097-4.541,9.156-4.136,9.156-4.136s0.55-2.049,0.601-4.384C131.742,142.975,130.962,140.608,130.962,140.608z"/>
		</g>
	</g>
</g>
<g id="Shape_13_1_">
	<g id="Shape_13">
		<g id="g162">
			<circle id="circle164" fill="#AF5238" stroke="#030202" stroke-miterlimit="10" cx="195.5" cy="143.412" r="1.014"/>
		</g>
	</g>
</g>
<g id="Shape_13_copy_1_">
	<g id="Shape_13_copy">
		<g id="g168">
			<circle id="circle170" fill="#AF5238" stroke="#030202" stroke-miterlimit="10" cx="195.5" cy="162.817" r="1.014"/>
		</g>
	</g>
</g>
<g id="Shape_13_copy_2_1_">
	<g id="Shape_13_copy_2">
		<g id="g174">
			<circle id="circle176" fill="#AF5238" stroke="#030202" stroke-miterlimit="10" cx="208.255" cy="153.965" r="1.014"/>
		</g>
	</g>
</g>
<g id="Shape_13_copy_3_1_">
	<g id="Shape_13_copy_3">
		<g id="g180">
			<circle id="circle182" fill="#AF5238" stroke="#030202" stroke-miterlimit="10" cx="183.595" cy="153.965" r="1.014"/>
		</g>
	</g>
</g>
<g id="Shape_13_copy_4_1_">
	<g id="Shape_13_copy_4">
		<g id="g186">
			<circle id="circle188" fill="#AF5238" stroke="#030202" stroke-miterlimit="10" cx="65.398" cy="101.253" r="1.014"/>
		</g>
	</g>
</g>
<g id="Shape_12_copy_9_1_">
	<g id="Shape_12_copy_9">
		<g id="g192">
			
				<ellipse id="ellipse194" fill="#AF5238" stroke="#030202" stroke-miterlimit="10" cx="66.553" cy="102.631" rx="20.873" ry="15.091"/>
		</g>
	</g>
</g>
<g id="Shape_12_copy_10_1_">
	<g id="Shape_12_copy_10">
		<g id="g198">
			
				<ellipse id="ellipse200" fill="#AF5238" stroke="#030202" stroke-miterlimit="10" cx="66.553" cy="102.631" rx="20.283" ry="14.664"/>
		</g>
	</g>
</g>
<g id="Shape_12_copy_11_1_">
	<g id="Shape_12_copy_11">
		<g id="g204">
			
				<ellipse id="ellipse206" fill="#AF5238" stroke="#030202" stroke-miterlimit="10" cx="66.938" cy="111.133" rx="18.708" ry="15.091"/>
		</g>
	</g>
</g>
<g id="Shape_12_copy_12_1_">
	<g id="Shape_12_copy_12">
		<g id="g210">
			
				<ellipse id="ellipse212" fill="#AF5238" stroke="#030202" stroke-miterlimit="10" cx="66.938" cy="111.133" rx="17.777" ry="14.34"/>
		</g>
	</g>
</g>
<g id="Shape_12_copy_13_1_">
	<g id="Shape_12_copy_13">
		<g id="g216">
			
				<ellipse id="ellipse218" fill="#AF5238" stroke="#030202" stroke-miterlimit="10" cx="67.222" cy="112.733" rx="11.475" ry="9.256"/>
		</g>
	</g>
</g>
<g id="Shape_13_copy_8_1_">
	<g id="Shape_13_copy_8">
		<g id="g222">
			<circle id="circle224" fill="#AF5238" stroke="#030202" stroke-miterlimit="10" cx="67.099" cy="122.508" r="1.014"/>
		</g>
	</g>
</g>
<g id="Shape_13_copy_9_1_">
	<g id="Shape_13_copy_9">
		<g id="g228">
			<circle id="circle230" fill="#AF5238" stroke="#030202" stroke-miterlimit="10" cx="79.604" cy="113.156" r="1.014"/>
		</g>
	</g>
</g>
<g id="Shape_13_copy_10_1_">
	<g id="Shape_13_copy_10">
		<g id="g234">
			<circle id="circle236" fill="#AF5238" stroke="#030202" stroke-miterlimit="10" cx="55.194" cy="113.156" r="1.014"/>
		</g>
	</g>
</g>
<g id="Shape_13_copy_11_1_">
	<g id="Shape_13_copy_11">
		<g id="g240">
			<circle id="circle242" fill="#AF5238" stroke="#030202" stroke-miterlimit="10" cx="67.099" cy="102.954" r="1.014"/>
		</g>
	</g>
</g>
<g id="Shape_11_1_">
	<g id="g246">
		<path id="ellipse248" connector-curvature="0" fill="#AF5238" stroke="#030202" stroke-miterlimit="10" d="
			M255.374,77.513c1.012,5.123-3.085,10.247-9.149,11.444s-11.8-1.985-12.812-7.109c-1.012-5.123,3.085-10.247,9.149-11.444
			C248.626,69.207,254.362,72.389,255.374,77.513L255.374,77.513z"/>
	</g>
</g>
<g id="Shape_11_copy_1_">
	<g id="Shape_11_copy">
		<g id="g252">
			<path id="path254" fill="#AF5238" stroke="#030202" stroke-miterlimit="10" d="M254.136,114.865
				c-0.917-4.971-6.696-8.157-12.909-7.115s-10.507,5.916-9.59,10.887c0.917,4.971,6.696,8.156,12.909,7.115
				C250.759,124.711,255.053,119.836,254.136,114.865z"/>
		</g>
	</g>
</g>
<g id="Shape_11_copy_3_1_">
	<g id="Shape_11_copy_3">
		<g id="g258">
			<path id="path260" fill="#AF5238" stroke="#030202" stroke-miterlimit="10" d="M229.762,98.324
				c-0.408-4.786-5.482-8.324-11.334-7.901c-5.852,0.422-10.266,4.644-9.858,9.43s5.482,8.324,11.334,7.901
				C225.756,107.332,230.17,103.11,229.762,98.324z"/>
		</g>
	</g>
</g>
<g id="Shape_11_copy_2_1_">
	<g id="Shape_11_copy_2">
		<g id="g264">
			<path id="path266" fill="#AF5238" stroke="#030202" stroke-miterlimit="10" d="M276.897,93.071
				c-1.485-4.391-7.263-6.35-12.904-4.375c-5.642,1.974-9.011,7.134-7.526,11.525c1.485,4.391,7.263,6.349,12.904,4.375
				C275.013,102.621,278.383,97.461,276.897,93.071z"/>
		</g>
	</g>
</g>
<g id="Shape_8_1_">
	<g id="Shape_8">
		<g id="g270">
			<path id="path272" fill="#AF5238" stroke="#030202" stroke-miterlimit="10" d="M174.4,47.582h-38.053
				c-1.585,0-2.87,0.009-2.87,1.594c0,1.585,1.285,4.145,2.87,4.145H174.4c1.585,0,2.87-2.56,2.87-4.145
				C177.27,47.591,175.985,47.582,174.4,47.582z"/>
		</g>
	</g>
</g>
<g id="Shape_9_1_">
	<g id="Shape_9">
		<g id="g276">
			<path id="path278" fill="#AF5238" stroke="#030202" stroke-miterlimit="10" d="M126.573,48.018l-4.175-0.804
				c-1.038-0.2-2.04,0.479-2.24,1.517c-0.2,1.037,0.48,2.04,1.517,2.24l4.175,0.804c1.038,0.2,2.04-0.479,2.24-1.517
				C128.289,49.221,127.61,48.218,126.573,48.018z"/>
		</g>
	</g>
</g>
<g id="Shape_9_copy_1_">
	<g id="Shape_9_copy">
		<g id="g282">
			<path id="path284" fill="#AF5238" stroke="#030202" stroke-miterlimit="10" d="M126.083,48.313l-3.34-0.643
				c-0.83-0.16-1.632,0.383-1.792,1.213s0.383,1.632,1.214,1.792l3.339,0.643c0.83,0.16,1.633-0.383,1.792-1.214
				C127.456,49.276,126.913,48.473,126.083,48.313z"/>
		</g>
	</g>
</g>
<g id="Shape_10_1_">
	<g id="Shape_10">
		<g id="g288">
			<path id="path290" fill="#AF5238" stroke="#030202" stroke-miterlimit="10" d="M191.3,45.35
				c-1.459,0.361-69.374,1.035-74.192-0.213c-12.386-3.208-23.39-6.339-23.39-6.339v0.564c0,0,7.57,2.546,23.178,6.625
				c6.031,1.576,69.034,1.275,74.405,0.213c14.601-2.889,26.042-6.801,26.042-6.801v-0.85
				C217.342,38.549,205.514,41.833,191.3,45.35z"/>
		</g>
	</g>
</g>
<g id="Shape_10_copy_1_">
	<g id="Shape_10_copy">
		<g id="g294">
			<path id="path296" fill="#AF5238" stroke="#030202" stroke-miterlimit="10" d="M218.031,52.508c0,0-17.139,9.487-30.291,14.773
				c-1.29,0.519-16.815,1.065-32.96,0.916c-16.173-0.149-32.968-0.995-35.199-2.071c-11.664-5.63-27.059-14.316-27.059-14.316v0.793
				c0,0,10.822,6.511,26.234,14.234c2.848,1.427,19.374,1.947,35.931,2.134c15.63,0.176,31.234-0.072,33.728-0.999
				c15.05-5.597,30.193-14.935,30.193-14.935L218.031,52.508z"/>
		</g>
	</g>
</g>
<g id="Shape_4_1_">
	<g id="Shape_4">
		<g id="g300">
			<path id="path302" fill="#AF5238" stroke="#030202" stroke-miterlimit="10" d="M93.936,38.867
				c-1.913-2.125-16.601-0.235-30.384,1.765c-12.516,1.817-20.408,5.363-22.321,7.276c-1.913,1.913-5.114,10.271-2.567,10.513
				c2.851,0.271,13.641-4.328,26.19-5.683c14.503-1.566,26.694,0.622,27.807-0.268C94.787,50.77,95.85,40.993,93.936,38.867z"/>
		</g>
	</g>
</g>
<g id="Shape_4_copy_1_">
	<g id="Shape_4_copy">
		<g id="g306">
			<path id="path308" fill="#AF5238" stroke="#030202" stroke-miterlimit="10" d="M93.136,39.509
				c-1.846-1.928-16.136-0.094-29.434,1.72c-12.076,1.647-19.911,5.236-21.756,6.971s-5.309,9.18-2.852,9.4
				c2.751,0.246,13.757-4.64,25.864-5.869c13.993-1.421,26.113,0.802,27.186-0.005C94.195,50.185,94.982,41.437,93.136,39.509z"/>
		</g>
	</g>
</g>
<g id="Shape_5_1_">
	<g id="Shape_5">
		<g id="g312">
			<path id="path314" fill="#AF5238" stroke="#030202" stroke-miterlimit="10" d="M126.35,94.915h-6.048
				c-3.061,0-5.542,2.481-5.542,5.541s2.481,5.541,5.542,5.541h6.048c3.061,0,5.542-2.481,5.542-5.541S129.411,94.915,126.35,94.915
				z"/>
		</g>
	</g>
</g>
<g id="Shape_5_copy_1_">
	<g id="Shape_5_copy">
		<g id="g318">
			<path id="path320" fill="#AF5238" stroke="#030202" stroke-miterlimit="10" d="M126.003,95.552h-5.354
				c-2.71,0-4.906,2.196-4.906,4.906c0,2.709,2.197,4.905,4.906,4.905h5.354c2.71,0,4.906-2.196,4.906-4.905
				C130.909,97.748,128.712,95.552,126.003,95.552z"/>
		</g>
	</g>
</g>
<g id="Shape_2_copy_3_1_">
	<g id="Shape_2_copy_3">
		<g id="g324">
			<path id="path326" fill="#AF5238" stroke="#030202" stroke-miterlimit="10" d="M83.873,10.67
				c-0.665-1.955-16.464-0.8-17.937,1.034c-0.909,1.451-0.096,5.51-0.86,10.713c-1.208,8.231-3.145,15.741-3.145,15.741
				l19.079-1.503c0,0,2.786-3.754,3.189-8.593C84.715,21.889,85.044,14.111,83.873,10.67z"/>
		</g>
	</g>
</g>
<g id="Shape_2_copy_1_">
	<g id="Shape_2_copy">
		<g id="g330">
			<path id="path332" fill="#AF5238" stroke="#030202" stroke-miterlimit="10" d="M83.397,11.267
				c-0.635-1.867-15.721-0.764-17.128,0.987c-0.868,1.385-0.092,5.262-0.821,10.229c-1.154,7.86-3.003,15.032-3.003,15.032
				l18.511-1.243c0,0,2.352-3.665,2.735-8.187C84.193,22.159,84.528,14.591,83.397,11.267z"/>
		</g>
	</g>
</g>
<g id="g336">
	
		<path id="path338" nodetypes="zzcczzczcz" connector-curvature="0" fill="#AF5238" stroke="#030202" stroke-miterlimit="10" d="
		M82.075,11.193c-0.201,0.527-0.114,8.516-0.484,14.224s-1.435,10.91-1.435,10.91l0.801-0.051c0,0,1.238-7.59,1.376-10.771
		c0.138-3.181,0.369-13.551,0.594-13.986s0.339-0.447,0.339-0.447s-0.143-0.138-0.34-0.225c-0.197-0.086-0.478-0.173-0.478-0.173
		S82.277,10.666,82.075,11.193L82.075,11.193z"/>
</g>
<g id="Shape_4_copy_2_1_">
	<g id="Shape_4_copy_2">
		<g id="g342">
			<path id="path344" fill="#AF5238" stroke="#030202" stroke-miterlimit="10" d="M269.516,47.908
				c-1.913-1.913-9.805-5.459-22.321-7.276c-13.783-2-28.471-3.891-30.384-1.765s-0.85,11.903,1.276,13.603
				c1.112,0.89,13.303-1.298,27.807,0.268c12.549,1.355,23.339,5.954,26.19,5.683C274.63,58.179,271.429,49.821,269.516,47.908z"/>
		</g>
	</g>
</g>
<g id="Shape_4_copy_3_1_">
	<g id="Shape_4_copy_3">
		<g id="g348">
			<path id="path350" fill="#AF5238" stroke="#030202" stroke-miterlimit="10" d="M268.801,48.201
				c-1.846-1.735-9.681-5.324-21.756-6.971c-13.298-1.814-27.589-3.648-29.434-1.72c-1.846,1.928-1.059,10.675,0.992,12.217
				c1.073,0.807,13.193-1.416,27.186,0.005c12.108,1.229,23.113,6.115,25.864,5.869C274.11,57.38,270.647,49.935,268.801,48.201z"/>
		</g>
	</g>
</g>
<g id="Shape_5_copy_2_1_">
	<g id="Shape_5_copy_2">
		<g id="g354">
			<path id="path356" fill="#AF5238" stroke="#030202" stroke-miterlimit="10" d="M190.445,94.915h-6.048
				c-3.061,0-5.542,2.481-5.542,5.541s2.481,5.541,5.542,5.541h6.048c3.061,0,5.542-2.481,5.542-5.541
				S193.506,94.915,190.445,94.915z"/>
		</g>
	</g>
</g>
<g id="Shape_5_copy_3_1_">
	<g id="Shape_5_copy_3">
		<g id="g360">
			<path id="path362" fill="#AF5238" stroke="#030202" stroke-miterlimit="10" d="M190.098,95.552h-5.354
				c-2.71,0-4.906,2.196-4.906,4.906c0,2.709,2.197,4.905,4.906,4.905h5.354c2.71,0,4.906-2.196,4.906-4.905
				C195.005,97.748,192.808,95.552,190.098,95.552z"/>
		</g>
	</g>
</g>
<g id="Shape_2_copy_4_1_">
	<g id="Shape_2_copy_4">
		<g id="g366">
			<path id="path368" fill="#AF5238" stroke="#030202" stroke-miterlimit="10" d="M245.671,22.417
				c-0.764-5.203,0.049-9.262-0.86-10.713c-1.474-1.834-17.272-2.989-17.937-1.034c-1.171,3.441-0.842,11.219-0.327,17.392
				c0.404,4.84,3.189,8.593,3.189,8.593l19.08,1.503C248.815,38.158,246.879,30.648,245.671,22.417z"/>
		</g>
	</g>
</g>
<g id="Shape_2_copy_5_1_">
	<g id="Shape_2_copy_5">
		<g id="g372">
			<path id="path374" fill="#AF5238" stroke="#030202" stroke-miterlimit="10" d="M245.299,22.484
				c-0.729-4.968,0.047-8.844-0.821-10.229c-1.408-1.751-16.493-2.854-17.128-0.987c-1.131,3.325-0.796,10.892-0.294,16.819
				c0.383,4.522,2.735,8.187,2.735,8.187l18.511,1.243C248.302,37.515,246.454,30.344,245.299,22.484z"/>
		</g>
	</g>
</g>
<g id="Shape_6_copy_2_1_">
	<g id="Shape_6_copy_2">
		<g id="g384">
			
				<ellipse id="ellipse386" fill="#AF5238" stroke="#030202" stroke-miterlimit="10" cx="155.161" cy="99.868" rx="17.631" ry="14.307"/>
		</g>
	</g>
</g>
<g id="Shape_6_1_">
	<g id="Shape_6">
		<g id="g402">
			
				<ellipse id="ellipse404" fill="#AF5238" stroke="#030202" stroke-miterlimit="10" cx="155.161" cy="100.081" rx="14.668" ry="11.903"/>
		</g>
	</g>
</g>
<g id="Shape_6_copy_1_">
	<g id="Shape_6_copy">
		<g id="g408">
			
				<ellipse id="ellipse410" fill="#AF5238" stroke="#030202" stroke-miterlimit="10" cx="155.161" cy="100.081" rx="13.819" ry="11.214"/>
		</g>
	</g>
</g>
<g id="A">
	<g id="text413" transform="matrix(1.3514 0 0 1 1327.2598 560.4512)">
		<path id="path4836" fill="#AF5238" stroke="#030202" stroke-miterlimit="10" d="M-807.273-439.284l3.692-9.614h1.371l3.935,9.614
			h-1.449l-1.121-2.912h-4.02l-1.056,2.912H-807.273z M-804.499-443.231h3.259l-1.003-2.663c-0.306-0.809-0.533-1.473-0.682-1.994
			c-0.122,0.616-0.295,1.229-0.518,1.836L-804.499-443.231z"/>
	</g>
</g>
<g id="B">
	<g id="text416" transform="matrix(1.3514 0 0 1 1425.8994 482.2334)">
		
			<path id="path4839" nodetypes="ccscccccccccssccscscccscccsccccccscc" connector-curvature="0" fill="#AF5238" stroke="#030202" stroke-miterlimit="10" d="
			M-861.012-380.62v-9.614l3.703-0.163c0.734-0.032,1.348,0,1.791,0.194c0.444,0.195,0.815,0.429,1.067,0.833
			c0.251,0.404,0.377,0.827,0.377,1.269c0,0.411-0.112,0.798-0.334,1.161s-0.584,0.721-1.034,0.944
			c0.581,0.171,1.053,0.396,1.365,0.807c0.313,0.411,0.493,0.864,0.493,1.423c0,0.45-0.119,0.901-0.309,1.288
			c-0.19,0.387-0.425,0.685-0.705,0.895c-0.28,0.21-0.655,0.433-1.077,0.541c-0.422,0.107-0.963,0.232-1.575,0.258L-861.012-380.62z
			 M-859.74-386.195l2.175-0.163c0.563-0.042,0.992-0.135,1.237-0.209c0.324-0.096,0.591-0.321,0.755-0.544
			c0.164-0.223,0.246-0.503,0.246-0.839c0-0.319-0.076-0.6-0.229-0.843s-0.396-0.344-0.68-0.433
			c-0.284-0.09-0.797-0.092-1.487-0.037l-2.018,0.163V-386.195z M-859.74-381.755l2.49-0.163c0.41-0.027,0.724-0.113,0.89-0.144
			c0.293-0.052,0.562-0.205,0.759-0.327c0.197-0.122,0.358-0.301,0.485-0.534c0.127-0.234,0.214-0.536,0.214-0.842
			c0-0.358-0.116-0.637-0.299-0.902c-0.184-0.264-0.462-0.385-0.788-0.492c-0.326-0.107-0.82-0.106-1.431-0.063l-2.32,0.163
			V-381.755z"/>
	</g>
</g>
<g id="Y">
	<g id="text419" transform="matrix(1.3514 0 0 1 1336.0654 414.2188)">
		<path id="path4918" fill="#AF5238" stroke="#030202" stroke-miterlimit="10" d="M-808.395-329.609v-4.073l-3.705-5.542h1.548
			l1.895,2.899c0.35,0.542,0.675,1.084,0.977,1.626c0.289-0.503,0.638-1.069,1.049-1.699l1.862-2.827h1.482l-3.836,5.542v4.073
			H-808.395z"/>
	</g>
</g>
<g id="RB">
	<g id="text422" transform="matrix(1.3514 0 0 1 1287.4385 262.6719)">
		<path id="path4842" fill="#AF5238" stroke="#030202" stroke-miterlimit="10" d="M-784.608-215.949v-4.958h2.198
			c0.442,0,0.778,0.045,1.008,0.134c0.23,0.089,0.414,0.246,0.551,0.472c0.138,0.225,0.206,0.475,0.206,0.747
			c0,0.352-0.114,0.648-0.342,0.889c-0.228,0.241-0.579,0.395-1.055,0.46c0.174,0.083,0.306,0.166,0.396,0.247
			c0.192,0.176,0.373,0.396,0.545,0.66l0.862,1.349h-0.825l-0.656-1.032c-0.192-0.298-0.349-0.525-0.473-0.683
			c-0.124-0.158-0.235-0.268-0.333-0.331c-0.098-0.063-0.198-0.107-0.299-0.132c-0.074-0.016-0.196-0.024-0.365-0.024h-0.761v2.202
			H-784.608z M-783.952-218.719h1.41c0.3,0,0.534-0.031,0.703-0.093c0.169-0.062,0.298-0.161,0.386-0.298
			c0.088-0.136,0.132-0.285,0.132-0.445c0-0.234-0.085-0.427-0.255-0.578c-0.17-0.151-0.439-0.227-0.807-0.227h-1.569V-218.719z"/>
		<path id="path4844" fill="#AF5238" stroke="#030202" stroke-miterlimit="10" d="M-779.64-215.949v-4.958h1.86
			c0.379,0,0.683,0.05,0.911,0.15c0.229,0.1,0.408,0.255,0.538,0.463s0.194,0.427,0.194,0.654c0,0.212-0.057,0.411-0.172,0.599
			c-0.115,0.187-0.289,0.338-0.521,0.453c0.3,0.088,0.53,0.238,0.692,0.45c0.161,0.212,0.242,0.462,0.242,0.751
			c0,0.232-0.049,0.448-0.147,0.648s-0.219,0.353-0.364,0.462s-0.325,0.19-0.543,0.245c-0.218,0.055-0.484,0.083-0.8,0.083H-779.64z
			 M-778.984-218.824h1.072c0.291,0,0.499-0.019,0.626-0.057c0.167-0.05,0.293-0.132,0.377-0.247
			c0.085-0.115,0.127-0.259,0.127-0.433c0-0.165-0.039-0.309-0.118-0.435s-0.192-0.211-0.338-0.257s-0.398-0.069-0.754-0.069h-0.991
			V-218.824z M-778.984-216.534h1.234c0.212,0,0.361-0.008,0.446-0.024c0.151-0.027,0.277-0.072,0.379-0.135
			c0.101-0.063,0.185-0.155,0.25-0.276c0.065-0.121,0.098-0.26,0.098-0.418c0-0.185-0.047-0.346-0.142-0.482
			c-0.095-0.136-0.226-0.232-0.394-0.287s-0.41-0.083-0.725-0.083h-1.147V-216.534z"/>
	</g>
</g>
<g id="RT">
	<g id="text425" transform="matrix(1.3514 0 0 1 1309.9307 215.061)">
		<path id="path4847" fill="#AF5238" stroke="#030202" stroke-miterlimit="10" d="M-797.091-180.241v-4.958h2.198
			c0.442,0,0.778,0.045,1.008,0.134c0.23,0.089,0.414,0.246,0.551,0.472c0.138,0.225,0.206,0.475,0.206,0.747
			c0,0.352-0.114,0.648-0.342,0.889s-0.579,0.395-1.055,0.46c0.174,0.083,0.306,0.166,0.396,0.247
			c0.192,0.176,0.373,0.396,0.544,0.66l0.862,1.349h-0.825l-0.656-1.032c-0.192-0.298-0.349-0.525-0.473-0.683
			c-0.124-0.158-0.235-0.268-0.333-0.331c-0.098-0.063-0.198-0.107-0.299-0.132c-0.074-0.016-0.196-0.024-0.365-0.024h-0.761v2.202
			H-797.091z M-796.435-183.011h1.41c0.3,0,0.534-0.031,0.703-0.093c0.169-0.062,0.298-0.161,0.386-0.298
			c0.088-0.136,0.132-0.285,0.132-0.445c0-0.234-0.085-0.427-0.255-0.578c-0.17-0.151-0.439-0.227-0.807-0.227h-1.569V-183.011z"/>
		<path id="path4849" fill="#AF5238" stroke="#030202" stroke-miterlimit="10" d="M-790.834-180.241v-4.373h-1.634v-0.585h3.93
			v0.585h-1.64v4.373H-790.834z"/>
	</g>
</g>
<g id="LB">
	<g id="text428" transform="matrix(1.3514 0 0 1 670.4751 262.6719)">
		<path id="path5007" fill="#AF5238" stroke="#030202" stroke-miterlimit="10" d="M-442.243-215.949v-4.958h0.656v4.373h2.442v0.585
			H-442.243z"/>
		<path id="path5009" fill="#AF5238" stroke="#030202" stroke-miterlimit="10" d="M-438.388-215.949v-4.958h1.86
			c0.379,0,0.683,0.05,0.911,0.15c0.229,0.1,0.408,0.255,0.538,0.463s0.194,0.427,0.194,0.654c0,0.212-0.057,0.411-0.172,0.599
			c-0.115,0.187-0.289,0.338-0.521,0.453c0.3,0.088,0.53,0.238,0.692,0.45s0.242,0.462,0.242,0.751c0,0.232-0.049,0.448-0.147,0.648
			s-0.219,0.353-0.364,0.462c-0.144,0.108-0.325,0.19-0.543,0.245c-0.218,0.055-0.484,0.083-0.8,0.083H-438.388z M-437.732-218.824
			h1.072c0.291,0,0.499-0.019,0.626-0.057c0.167-0.05,0.293-0.132,0.377-0.247c0.085-0.115,0.127-0.259,0.127-0.433
			c0-0.165-0.039-0.309-0.118-0.435s-0.192-0.211-0.338-0.257c-0.147-0.046-0.398-0.069-0.754-0.069h-0.991V-218.824z
			 M-437.732-216.534h1.234c0.212,0,0.361-0.008,0.446-0.024c0.151-0.027,0.277-0.072,0.379-0.135
			c0.101-0.063,0.185-0.155,0.25-0.276c0.065-0.121,0.098-0.26,0.098-0.418c0-0.185-0.047-0.346-0.142-0.482
			s-0.226-0.232-0.394-0.287s-0.41-0.083-0.725-0.083h-1.147V-216.534z"/>
	</g>
</g>
<g id="LT">
	<g id="text431" transform="matrix(1.3514 0 0 1 652.1509 215.061)">
		<path id="path5012" fill="#AF5238" stroke="#030202" stroke-miterlimit="10" d="M-432.074-180.241v-4.958h0.656v4.373h2.442v0.585
			H-432.074z"/>
		<path id="path5014" fill="#AF5238" stroke="#030202" stroke-miterlimit="10" d="M-426.93-180.241v-4.373h-1.634v-0.585h3.93v0.585
			h-1.64v4.373H-426.93z"/>
	</g>
</g>
<g id="X">
	<g id="text434" transform="matrix(1.3514 0 0 1 1234.0254 492.4365)">
		<path id="path4915" fill="#AF5238" stroke="#030202" stroke-miterlimit="10" d="M-755.451-388.273l3.718-5.01l-3.279-4.604h1.515
			l1.744,2.466c0.363,0.512,0.621,0.905,0.774,1.18c0.214-0.35,0.468-0.715,0.761-1.095l1.935-2.551h1.384l-3.377,4.532l3.64,5.082
			h-1.574l-2.42-3.43c-0.135-0.197-0.275-0.411-0.42-0.643c-0.214,0.35-0.367,0.59-0.459,0.721l-2.413,3.351H-755.451z"/>
	</g>
</g>
<g id="Shape_28_1_">
	<g id="Shape_28">
		<g id="g438">
			<polygon id="polygon440" fill="#AF5238" stroke="#030202" stroke-miterlimit="10" points="156.383,98.045 145.769,92.086 
				145.571,92.244 153.29,100.373 164.991,107.805 165.189,107.647 			"/>
		</g>
	</g>
</g>
<g id="Shape_28_copy_1_">
	<g id="Shape_28_copy">
		<g id="g444">
			<polygon id="polygon446" fill="#AF5238" stroke="#030202" stroke-miterlimit="10" points="164.278,91.836 153.664,98.045 
				144.857,107.647 145.055,107.805 156.756,100.373 164.476,91.994 			"/>
		</g>
	</g>
</g>
<g id="g4804" transform="matrix(-1,0,0,1,2006.2538,-0.15857603)">
	<g id="g4806">
		
			<path id="path4808" nodetypes="zzcczzczcz" connector-curvature="0" fill="#AF5238" stroke="#030202" stroke-miterlimit="10" d="
			M1777.719,11.312c-0.217,0.466-0.114,8.516-0.484,14.224s-1.573,10.947-1.573,10.947l0.804-0.045c0,0,1.373-7.633,1.511-10.814
			s0.369-13.551,0.594-13.986c0.224-0.435,0.228-0.38,0.228-0.38s-0.031-0.045-0.192-0.157c-0.16-0.111-0.6-0.252-0.6-0.252
			S1777.936,10.846,1777.719,11.312L1777.719,11.312z"/>
	</g>
</g>
</svg>
