<?xml version="1.0" encoding="utf-8"?>
<!-- Generator: Adobe Illustrator 17.1.0, SVG Export Plug-In . SVG Version: 6.00 Build 0)  -->
<!DOCTYPE svg PUBLIC "-//W3C//DTD SVG 1.0//EN" "http://www.w3.org/TR/2001/REC-SVG-20010904/DTD/svg10.dtd">
<svg version="1.0" id="Layer_1" xmlns="http://www.w3.org/2000/svg" xmlns:xlink="http://www.w3.org/1999/xlink" x="0px" y="0px"
	 viewBox="0 0 100.495 101.995" enable-background="new 0 0 100.495 101.995" xml:space="preserve">
<path opacity="0.5" fill="none" stroke="#020202" stroke-miterlimit="10" d="M81.648,76.227c0,4.418-3.582,8-8,8h-48
	c-4.418,0-8-3.582-8-8v-48c0-4.418,3.582-8,8-8h48c4.418,0,8,3.582,8,8V76.227z"/>
<rect x="34.227" y="43.296" fill="none" stroke="#020202" stroke-miterlimit="10" width="7.389" height="17.274"/>
<polygon fill="none" stroke="#020202" stroke-miterlimit="10" points="51.718,69.052 43.08,60.57 43.08,43.296 51.718,34.813 "/>
<path fill="none" stroke="#020202" stroke-miterlimit="10" d="M53.72,59.876v-2.4c2.788,0,5.057-2.269,5.057-5.057
	c0-2.789-2.269-5.057-5.057-5.057v-2.4c4.111,0,7.457,3.345,7.457,7.457C61.177,56.53,57.831,59.876,53.72,59.876z"/>
<path fill="none" stroke="#020202" stroke-miterlimit="10" d="M53.677,64.711v-3.6c4.898,0,8.884-3.985,8.884-8.884
	s-3.985-8.884-8.884-8.884v-3.6c6.884,0,12.483,5.6,12.483,12.483C66.16,59.111,60.56,64.711,53.677,64.711z"/>
<circle fill="none" stroke="#020202" stroke-miterlimit="10" cx="53.248" cy="52.227" r="3.6"/>
</svg>
