<?xml version="1.0" encoding="utf-8"?>
<!-- Generator: Adobe Illustrator 17.0.0, SVG Export Plug-In . SVG Version: 6.00 Build 0)  -->
<!DOCTYPE svg PUBLIC "-//W3C//DTD SVG 1.0//EN" "http://www.w3.org/TR/2001/REC-SVG-20010904/DTD/svg10.dtd">
<svg version="1.0" id="Layer_1" xmlns="http://www.w3.org/2000/svg" xmlns:xlink="http://www.w3.org/1999/xlink" x="0px" y="0px"
	 width="232.394px" height="190.141px" viewBox="0 0 232.394 190.141" enable-background="new 0 0 232.394 190.141"
	 xml:space="preserve">
<g>
	<path fill="#41AA53" stroke="#23562B" stroke-width="5" stroke-linejoin="round" d="M115.206,6.034
		c-35.836,0-64.886,29.051-64.886,64.887c0,27.815,17.507,51.535,42.101,60.761l14.953-39.874
		c-8.454-3.171-14.472-11.325-14.472-20.887c0-12.319,9.986-22.305,22.305-22.305c12.319,0,22.305,9.986,22.305,22.305
		c0,9.562-6.019,17.715-14.473,20.887l14.953,39.874c24.593-9.226,42.101-32.946,42.101-60.761
		C180.092,35.085,151.042,6.034,115.206,6.034z"/>
	<path fill="#23562B" d="M178.741,115.699v11.997h-2.507v-11.997h-4.112v-1.915h10.702v1.915H178.741z"/>
	<path fill="#23562B" d="M198.442,120.83c-0.027-0.106-0.074-0.405-0.136-0.898c-0.056-0.401-0.107-0.735-0.148-1.003
		c-0.063,0.316-0.154,0.634-0.269,0.951c-0.116,0.316-0.262,0.641-0.439,0.97l-4.043,7.409l-4.043-7.566
		c-0.169-0.31-0.315-0.612-0.439-0.903c-0.123-0.293-0.23-0.58-0.322-0.861c-0.007,0.288-0.034,0.594-0.079,0.913
		c-0.045,0.32-0.114,0.657-0.206,1.008l-1.657,6.846h-2.312l3.652-14.504l4.561,8.788c0.07,0.141,0.178,0.372,0.322,0.692
		c0.145,0.32,0.319,0.721,0.523,1.199c0.147-0.401,0.379-0.908,0.696-1.522c0.085-0.169,0.148-0.296,0.19-0.38l4.455-8.778
		l3.738,14.504h-2.333L198.442,120.83z"/>
	<path fill="#010101" d="M25.312,163.654c0,2.649-2.163,4.866-4.867,4.866c-2.758,0-4.867-2.217-4.867-4.866v-7.029
		c0-2.649,2.163-4.867,4.867-4.867c2.703,0,4.867,2.217,4.867,4.867V163.654z M30.178,163.654v-7.029
		c0-5.462-3.839-9.193-9.733-9.193s-9.733,3.678-9.733,9.193v7.029c0,5.515,3.839,9.192,9.733,9.192S30.178,169.17,30.178,163.654z"
		/>
	<path fill="#010101" d="M47.481,163.113c0,2.65-2.109,4.867-4.867,4.867c-2.703,0-4.866-2.217-4.866-4.867v-5.947
		c0-2.651,2.163-4.868,4.866-4.868c2.758,0,4.867,2.217,4.867,4.868V163.113z M52.347,163.113v-5.947
		c0-5.461-3.893-9.193-9.354-9.193c-3.19,0-4.704,1.785-5.407,1.785c-0.217,0-0.379-0.217-0.379-0.595v-0.648
		c0-0.378-0.162-0.542-0.54-0.542h-3.244c-0.378,0-0.541,0.164-0.541,0.542v35.415c0,0.379,0.163,0.542,0.541,0.542h3.785
		c0.379,0,0.541-0.163,0.541-0.542v-12.814c0-0.379,0.162-0.594,0.432-0.594c0.487,0,2.109,1.784,5.245,1.784
		C48.454,172.306,52.347,168.413,52.347,163.113z"/>
	<path fill="#010101" d="M68.352,157.167h-8.651c-0.487,0-0.541-0.217-0.541-0.812c0-2.378,2.271-4.595,4.867-4.595
		c2.541,0,4.866,2.163,4.866,4.487C68.893,156.896,68.84,157.167,68.352,157.167z M73.759,160.409v-3.784
		c0-4.92-4.326-9.193-9.732-9.193c-5.407,0-9.733,4.273-9.733,9.193v7.029c0,5.515,3.839,9.192,9.733,9.192
		c2.866,0,5.136-0.757,6.759-2.271c1.622-1.514,2.271-2.92,2.271-3.298c0-0.162-0.108-0.27-0.325-0.378l-3.407-1.73
		c-0.107-0.054-0.216-0.108-0.324-0.108c-0.325,0-0.811,0.865-2.001,2.272c-0.595,0.702-1.675,1.188-2.973,1.188
		c-2.758,0-4.867-2.217-4.867-4.866v-2.163c0-0.378,0.163-0.541,0.541-0.541h13.518C73.597,160.951,73.759,160.788,73.759,160.409z"
		/>
	<path fill="#010101" d="M95.01,172.306h-3.784c-0.378,0-0.54-0.162-0.54-0.54v-14.599c0-2.651-2.109-4.868-4.867-4.868
		c-2.703,0-4.867,2.217-4.867,4.868v14.599c0,0.378-0.162,0.54-0.54,0.54h-3.785c-0.379,0-0.541-0.162-0.541-0.54v-23.25
		c0-0.378,0.163-0.542,0.541-0.542h3.245c0.379,0,0.54,0.164,0.54,0.542v0.648c0,0.378,0.162,0.595,0.378,0.595
		c0.702,0,2.217-1.785,5.407-1.785c5.462,0,9.355,3.732,9.355,9.193v14.599C95.551,172.144,95.388,172.306,95.01,172.306z"/>
	<path fill="#010101" d="M109.068,154.301c0,2.217,1.677,3.244,5.407,4.055c6.218,1.352,9.679,2.163,9.679,6.705
		c0,4.596-3.353,7.786-8.598,7.786h-1.677c-5.028,0-8.327-3.028-8.327-4.704c0-0.161,0.109-0.269,0.38-0.378l2.108-1.027
		c0.108-0.055,0.216-0.055,0.27-0.055c0.162,0,0.271,0.108,0.433,0.271c1.406,1.567,2.487,3.028,5.136,3.028h1.677
		c3.029,0,4.975-1.73,4.975-3.948c0-2-1.676-3.19-5.3-3.947c-6.271-1.299-9.679-1.946-9.679-6.706c0-4.433,3.299-7.516,8.327-7.516
		h1.677c4.921,0,8.273,2.975,8.273,4.597c0,0.162-0.162,0.269-0.378,0.378l-2.055,1.027c-0.107,0.055-0.161,0.055-0.216,0.055
		c-0.162,0-0.269-0.109-0.432-0.272c-1.513-1.621-2.756-2.919-5.19-2.919h-1.677C110.745,150.732,109.068,152.084,109.068,154.301z"
		/>
	<path fill="#010101" d="M141.62,163.978c0,3.137-2.543,5.787-5.785,5.787c-3.244,0-5.733-2.65-5.733-5.787v-7.299
		c0-3.19,2.434-5.732,5.733-5.732c3.243,0,5.785,2.65,5.785,5.732V163.978z M145.296,163.978v-7.299c0-5.246-3.73-8.814-9.461-8.814
		c-5.733,0-9.355,3.461-9.355,8.814v7.299c0,5.354,3.623,8.868,9.355,8.868C141.566,172.846,145.296,169.278,145.296,163.978z"/>
	<path fill="#010101" d="M166.385,172.306h-2.001c-0.378,0-0.541-0.162-0.541-0.54v-2.326c0-0.378-0.215-0.594-0.432-0.594
		c-0.486,0-1.026,0.865-2,1.838c-1.082,1.026-2.704,1.621-4.488,1.621c-4.921,0-8.814-3.623-8.814-8.868v-14.491
		c0-0.378,0.163-0.54,0.541-0.54h2.541c0.379,0,0.54,0.162,0.54,0.54v14.491c0,3.136,2.543,5.786,5.733,5.786
		c3.352,0,5.839-2.596,5.839-5.786v-14.491c0-0.378,0.161-0.54,0.54-0.54h2.542c0.378,0,0.54,0.162,0.54,0.54v22.818
		C166.926,172.144,166.763,172.306,166.385,172.306z"/>
	<path fill="#010101" d="M183.309,152.245c-0.432,0-1.135-0.161-2.055-0.161c-3.298,0-5.731,2.486-5.731,5.676v14.005
		c0,0.378-0.161,0.54-0.54,0.54h-2.597c-0.378,0-0.54-0.162-0.54-0.54v-22.818c0-0.378,0.161-0.54,0.54-0.54h2.002
		c0.378,0,0.54,0.162,0.54,0.54v2.704c0,0.378,0.216,0.594,0.433,0.594c0.593,0,1.459-1.352,3.406-2.92
		c0.595-0.486,1.729-0.919,2.487-0.919h2.001c0.379,0,0.54,0.162,0.54,0.54v2.759C183.796,152.137,183.687,152.245,183.309,152.245z
		"/>
	<path fill="#010101" d="M201.423,168.089c0,1.729-3.298,4.758-8.38,4.758c-5.732,0-9.355-3.514-9.355-8.868v-7.299
		c0-5.354,3.623-8.814,9.355-8.814c5.028,0,8.435,2.867,8.435,4.65c0,0.161-0.163,0.325-0.378,0.433l-2.272,1.135
		c-0.108,0.054-0.162,0.054-0.217,0.054c-0.161,0-0.269-0.054-0.432-0.215c-1.622-1.515-2.704-2.975-5.137-2.975
		c-3.299,0-5.732,2.542-5.732,5.732v7.299c0,3.137,2.488,5.787,5.732,5.787c1.298,0,2.595-0.54,3.569-1.461
		c1.135-1.081,1.621-1.838,1.946-1.838c0.054,0,0.163,0,0.271,0.054l2.272,1.135C201.37,167.764,201.423,167.872,201.423,168.089z"
		/>
	<path fill="#010101" d="M218.509,157.436c0,0.378-0.161,0.541-0.54,0.541h-10.435c-0.379,0-0.54-0.163-0.54-0.541v-0.757
		c0-3.19,2.433-5.732,5.73-5.732c3.245,0,5.785,2.65,5.785,5.732V157.436z M222.187,159.978v-3.298c0-4.65-4.218-8.814-9.463-8.814
		c-2.757,0-5.028,0.974-6.813,2.867c-1.621,1.73-2.541,3.947-2.541,5.947v7.299c0,5.354,3.623,8.868,9.354,8.868
		c5.083,0,8.382-3.028,8.382-4.758c0-0.216-0.054-0.325-0.324-0.433l-2.272-1.135c-0.107-0.054-0.215-0.054-0.269-0.054
		c-0.324,0-0.811,0.757-1.947,1.838c-0.972,0.92-2.271,1.461-3.569,1.461c-3.244,0-5.73-2.65-5.73-5.787v-2.919
		c0-0.378,0.161-0.541,0.54-0.541h14.112C222.025,160.518,222.187,160.356,222.187,159.978z"/>
</g>
</svg>
