<?xml version="1.0" encoding="utf-8"?>
<!-- Generator: Adobe Illustrator 17.0.0, SVG Export Plug-In . SVG Version: 6.00 Build 0)  -->
<!DOCTYPE svg PUBLIC "-//W3C//DTD SVG 1.0//EN" "http://www.w3.org/TR/2001/REC-SVG-20010904/DTD/svg10.dtd">
<svg version="1.0" id="Layer_1" xmlns="http://www.w3.org/2000/svg" xmlns:xlink="http://www.w3.org/1999/xlink" x="0px" y="0px"
	 width="90.883px" height="68.002px" viewBox="0 0 90.883 68.002" enable-background="new 0 0 90.883 68.002" xml:space="preserve">
<path d="M78.676,13.77c0,3.314-2.686,6-6,6l0,0c-3.314,0-6-2.686-6-6l0,0c0-3.314,2.686-6,6-6l0,0
	C75.99,7.77,78.676,10.456,78.676,13.77L78.676,13.77z"/>
<path d="M39.981,7.77c0,2.209-1.791,4-4,4l0,0c-2.209,0-4-1.791-4-4l0,0c0-2.209,1.791-4,4-4l0,0
	C38.19,3.77,39.981,5.561,39.981,7.77L39.981,7.77z"/>
<path d="M37.981,52.103c0,3.314-2.686,6-6,6l0,0c-3.314,0-6-2.686-6-6l0,0c0-3.314,2.686-6,6-6l0,0
	C35.295,46.103,37.981,48.789,37.981,52.103L37.981,52.103z"/>
<path d="M83.695,39.103c0,2.219-1.799,4.019-4.019,4.019l0,0c-2.219,0-4.019-1.799-4.019-4.019l0,0c0-2.219,1.799-4.019,4.019-4.019
	l0,0C81.896,35.085,83.695,36.884,83.695,39.103L83.695,39.103z"/>
<path d="M66.832,3.885c0,2.146-1.739,3.885-3.885,3.885l0,0c-2.146,0-3.885-1.739-3.885-3.885l0,0C59.062,1.739,60.801,0,62.947,0
	l0,0C65.092,0,66.832,1.739,66.832,3.885L66.832,3.885z"/>
<path d="M84.837,27.77c0,1.945-1.577,3.522-3.522,3.522l0,0c-1.945,0-3.522-1.577-3.522-3.522l0,0c0-1.945,1.577-3.522,3.522-3.522
	l0,0C83.26,24.247,84.837,25.825,84.837,27.77L84.837,27.77z"/>
<path d="M49.981,62.002c0,3.314-2.686,6-6,6l0,0c-3.314,0-6-2.686-6-6l0,0c0-3.314,2.686-6,6-6l0,0
	C47.295,56.002,49.981,58.688,49.981,62.002L49.981,62.002z"/>
<path d="M90.883,35.085c0,1.512-1.226,2.738-2.738,2.738l0,0c-1.512,0-2.738-1.226-2.738-2.738l0,0c0-1.512,1.226-2.738,2.738-2.738
	l0,0C89.658,32.347,90.883,33.573,90.883,35.085L90.883,35.085z"/>
<path d="M59.398,61.692c0.171,1.741-1.102,3.29-2.842,3.461l0,0c-1.741,0.171-3.29-1.102-3.461-2.842l0,0
	c-0.171-1.741,1.102-3.29,2.842-3.461l0,0C57.678,58.679,59.227,59.952,59.398,61.692L59.398,61.692z"/>
<path d="M56.247,11.77c0,2.724-2.208,4.932-4.932,4.932l0,0c-2.724,0-4.932-2.208-4.932-4.932l0,0c0-2.724,2.208-4.932,4.932-4.932
	l0,0C54.038,6.838,56.247,9.046,56.247,11.77L56.247,11.77z"/>
<path d="M43.663,18.27c0,2.033-1.648,3.682-3.682,3.682l0,0c-2.033,0-3.682-1.648-3.682-3.682l0,0c0-2.033,1.648-3.682,3.682-3.682
	l0,0C42.015,14.588,43.663,16.236,43.663,18.27L43.663,18.27z"/>
<path d="M27.51,43.103c0,1.729-1.402,3.131-3.131,3.131l0,0c-1.729,0-3.131-1.402-3.131-3.131l0,0c0-1.729,1.402-3.131,3.131-3.131
	l0,0C26.108,39.972,27.51,41.374,27.51,43.103L27.51,43.103z"/>
<path d="M71.913,61.103c0,2.806-2.275,5.081-5.081,5.081l0,0c-2.806,0-5.081-2.275-5.081-5.081l0,0c0-2.806,2.275-5.081,5.081-5.081
	l0,0C69.638,56.022,71.913,58.297,71.913,61.103L71.913,61.103z"/>
<path d="M33.981,24.247c0,3.314-2.686,6-6,6l0,0c-3.314,0-6-2.686-6-6l0,0c0-3.314,2.686-6,6-6l0,0
	C31.295,18.247,33.981,20.934,33.981,24.247L33.981,24.247z"/>
<path d="M82.908,51.319c0,2.825-2.29,5.116-5.116,5.116l0,0c-2.825,0-5.116-2.29-5.116-5.116l0,0c0-2.825,2.29-5.116,5.116-5.116
	l0,0C80.618,46.203,82.908,48.494,82.908,51.319L82.908,51.319z"/>
<path d="M17.864,46.103c0,2.881-2.335,5.216-5.216,5.216l0,0c-2.881,0-5.216-2.335-5.216-5.216l0,0c0-2.881,2.335-5.216,5.216-5.216
	l0,0C15.529,40.887,17.864,43.222,17.864,46.103L17.864,46.103z"/>
<path d="M4.596,38.185c0,1.269-1.029,2.298-2.298,2.298l0,0C1.029,40.483,0,39.454,0,38.185l0,0c0-1.269,1.029-2.298,2.298-2.298
	l0,0C3.567,35.887,4.596,36.916,4.596,38.185L4.596,38.185z"/>
<path fill="none" stroke="#000000" stroke-miterlimit="10" d="M73.648,37.103c0,10.401-8.432,18.833-18.833,18.833l0,0
	c-10.401,0-18.833-8.432-18.833-18.833l0,0c0-10.401,8.432-18.833,18.833-18.833l0,0C65.216,18.27,73.648,26.702,73.648,37.103
	L73.648,37.103z"/>
<path d="M16.468,33.283c0,2.11-1.71,3.82-3.82,3.82l0,0c-2.11,0-3.82-1.71-3.82-3.82l0,0c0-2.11,1.71-3.82,3.82-3.82l0,0
	C14.758,29.462,16.468,31.173,16.468,33.283L16.468,33.283z"/>
<path d="M33.372,35.887c0,1.42-1.151,2.57-2.57,2.57l0,0c-1.42,0-2.57-1.151-2.57-2.57l0,0c0-1.42,1.151-2.57,2.57-2.57l0,0
	C32.221,33.317,33.372,34.468,33.372,35.887L33.372,35.887z"/>
</svg>
