<?xml version="1.0" encoding="utf-8"?>
<!-- Generator: Adobe Illustrator 17.0.0, SVG Export Plug-In . SVG Version: 6.00 Build 0)  -->
<!DOCTYPE svg PUBLIC "-//W3C//DTD SVG 1.0//EN" "http://www.w3.org/TR/2001/REC-SVG-20010904/DTD/svg10.dtd">
<svg version="1.0" id="Layer_1" xmlns="http://www.w3.org/2000/svg" xmlns:xlink="http://www.w3.org/1999/xlink" x="0px" y="0px"
	 width="185.515px" height="56.728px" viewBox="0 0 185.515 56.728" enable-background="new 0 0 185.515 56.728"
	 xml:space="preserve">
<g>
	<circle fill="#3F3939" cx="27.999" cy="28.364" r="28.364"/>
	<g>
		<polygon fill="#EE3135" points="44.149,32.736 39.716,35.339 39.716,16.487 44.204,14.113 		"/>
		<polygon fill="#9457A3" points="32.395,44.704 27.92,42.145 44.184,32.736 48.486,35.433 		"/>
		<polygon fill="#F9E52F" points="23.355,12.2 27.797,14.68 11.594,24.249 7.267,21.591 		"/>
		<polygon fill="#F99C2F" points="39.716,16.487 39.716,21.387 23.355,12.2 23.512,7.124 		"/>
		<polygon fill="#4080C2" points="16.085,40.5 16.045,35.354 32.395,44.704 32.232,49.779 		"/>
		<polygon fill="#6DBF55" points="11.579,24.252 16.002,21.631 16.078,40.483 11.599,42.875 		"/>
	</g>
</g>
<g>
	<rect x="70.337" y="0.427" fill="#D05E32" width="43.837" height="55.815"/>
	<rect x="114.174" y="0.427" fill="#64270F" width="8.624" height="55.815"/>
	<rect x="72.972" y="2.867" fill="#E0E0DD" width="38.687" height="50.935"/>
	<circle fill="#3F3939" cx="92.255" cy="20.778" r="16.05"/>
	<g>
		<polygon fill="#EE3135" points="101.393,23.252 98.885,24.725 98.885,14.057 101.425,12.714 		"/>
		<polygon fill="#9457A3" points="94.742,30.024 92.21,28.576 101.413,23.251 103.848,24.778 		"/>
		<polygon fill="#F9E52F" points="89.627,11.631 92.141,13.035 82.972,18.449 80.524,16.945 		"/>
		<polygon fill="#F99C2F" points="98.885,14.057 98.885,16.83 89.627,11.631 89.716,8.759 		"/>
		<polygon fill="#4080C2" points="85.513,27.645 85.491,24.733 94.742,30.024 94.65,32.895 		"/>
		<polygon fill="#6DBF55" points="82.964,18.451 85.467,16.968 85.51,27.635 82.975,28.989 		"/>
	</g>
</g>
<circle fill="#BDC0C1" cx="161.442" cy="29.024" r="24.073"/>
<polygon fill="#171A1C" points="174.246,29.024 155.039,40.113 155.039,17.934 "/>
</svg>
