<?xml version="1.0" encoding="utf-8"?>
<!-- Generator: Adobe Illustrator 17.0.0, SVG Export Plug-In . SVG Version: 6.00 Build 0)  -->
<!DOCTYPE svg PUBLIC "-//W3C//DTD SVG 1.0//EN" "http://www.w3.org/TR/2001/REC-SVG-20010904/DTD/svg10.dtd">
<svg version="1.0" id="Layer_1" xmlns="http://www.w3.org/2000/svg" xmlns:xlink="http://www.w3.org/1999/xlink" x="0px" y="0px"
	 width="305.739px" height="191.713px" viewBox="0 0 305.739 191.713" enable-background="new 0 0 305.739 191.713"
	 xml:space="preserve">
<path fill="#010101" d="M299.733,0H113.377c-3.317,0-6.006,2.689-6.006,6.006v124.793c0,3.317,2.689,6.006,6.006,6.006h186.356
	c3.317,0,6.006-2.689,6.006-6.006V6.006C305.739,2.689,303.05,0,299.733,0z M298.898,112.28h-184.52V6.84h184.52V112.28z"/>
<path fill="#969696" d="M107.371,118.904v12.179c0,3.317,2.689,6.006,6.006,6.006h186.356c3.317,0,6.006-2.689,6.006-6.006v-12.179
	H107.371z"/>
<g>
	<rect x="174.439" y="159.278" fill="#676767" width="64.232" height="1.835"/>
	<polygon fill="#ABABAB" points="238.67,159.278 174.606,159.278 183.114,151.771 229.995,151.771 	"/>
	<polygon fill="#888888" points="229.995,151.771 183.114,151.771 184.95,137.089 228.327,137.089 	"/>
</g>
<circle fill="#676767" cx="206.805" cy="128.413" r="4.505"/>
<rect x="114.378" y="6.84" fill="#434343" width="184.52" height="105.44"/>
<rect x="114.378" y="6.84" fill="#262626" width="184.52" height="7.873"/>
<rect x="114.378" y="90.046" fill="#C4C4C3" width="151.955" height="22.234"/>
<rect x="266.333" y="90.046" fill="#686868" width="32.565" height="22.234"/>
<rect x="142" y="14.713" fill="#686868" width="124.333" height="75.333"/>
<rect x="114.378" y="90.046" fill="#333333" width="184.52" height="4.333"/>
<rect x="114.545" y="14.713" fill="#333333" width="27.455" height="4.333"/>
<path fill="#939393" d="M286.22,96.234c0,1.185-0.895,2.145-2,2.145H175.771c-1.105,0-2-0.961-2-2.145v-68.42
	c0-1.185,0.895-2.145,2-2.145H284.22c1.105,0,2,0.961,2,2.145V96.234z"/>
<rect x="173.771" y="30.379" fill="#262626" width="112.449" height="76.5"/>
<circle fill="#EE2B24" cx="176.704" cy="28.266" r="1.437"/>
<circle fill="#FFCA31" cx="180.578" cy="28.266" r="1.437"/>
<circle fill="#87C540" cx="184.418" cy="28.266" r="1.437"/>
<circle fill="#443D3C" cx="229" cy="69.046" r="31.214"/>
<g>
	<polygon fill="#E92629" points="246.772,73.858 241.893,76.722 241.893,55.976 246.832,53.363 	"/>
	<polygon fill="#99519D" points="233.837,87.027 228.913,84.211 246.81,73.857 251.545,76.825 	"/>
	<polygon fill="#FAE300" points="223.889,51.258 228.778,53.987 210.946,64.517 206.185,61.593 	"/>
	<polygon fill="#F69C21" points="241.893,55.976 241.893,61.368 223.889,51.258 224.062,45.672 	"/>
	<polygon fill="#447DC0" points="215.888,82.401 215.845,76.739 233.837,87.027 233.658,92.612 	"/>
	<polygon fill="#6DBD46" points="210.93,64.521 215.798,61.637 215.881,82.382 210.952,85.015 	"/>
</g>
<rect x="0" y="86.312" fill="#171617" width="139.333" height="83.368"/>
<rect x="0" y="166.379" fill="#262626" width="139.333" height="19.333"/>
<rect x="0" y="185.713" fill="#383838" width="139.333" height="6"/>
<rect x="4.667" y="90.7" fill="#3375BB" width="130.667" height="72.179"/>
<rect x="4.667" y="159.278" fill="#244F7D" width="130.667" height="3.601"/>
<rect x="53.25" y="108.138" fill="#262626" width="59.417" height="40.551"/>
<rect x="53.25" y="102.872" fill="#0E4E6D" width="59.417" height="5.716"/>
<rect x="102.821" y="102.918" fill="#C34027" width="8.538" height="3.615"/>
<rect x="96.948" y="102.918" fill="#237596" width="5.078" height="3.615"/>
<rect x="91.072" y="102.918" fill="#237596" width="5.078" height="3.615"/>
<circle fill="#443D3C" cx="83.958" cy="128.79" r="17.195"/>
<g>
	<polygon fill="#E92629" points="93.749,131.441 91.061,133.018 91.061,121.59 93.782,120.15 	"/>
	<polygon fill="#99519D" points="86.623,138.696 83.91,137.144 93.77,131.44 96.378,133.075 	"/>
	<polygon fill="#FAE300" points="81.143,118.99 83.836,120.494 74.013,126.295 71.39,124.684 	"/>
	<polygon fill="#F69C21" points="91.061,121.59 91.061,124.56 81.143,118.99 81.238,115.913 	"/>
	<polygon fill="#447DC0" points="76.735,136.147 76.711,133.028 86.623,138.696 86.524,141.772 	"/>
	<polygon fill="#6DBD46" points="74.004,126.297 76.685,124.708 76.731,136.137 74.016,137.587 	"/>
</g>
</svg>
