<?xml version="1.0" encoding="utf-8"?>
<!-- Generator: Adobe Illustrator 17.0.0, SVG Export Plug-In . SVG Version: 6.00 Build 0)  -->
<!DOCTYPE svg PUBLIC "-//W3C//DTD SVG 1.0//EN" "http://www.w3.org/TR/2001/REC-SVG-20010904/DTD/svg10.dtd">
<svg version="1.0" id="Layer_1" xmlns="http://www.w3.org/2000/svg" xmlns:xlink="http://www.w3.org/1999/xlink" x="0px" y="0px"
	 width="345.07px" height="356.338px" viewBox="0 0 345.07 356.338" enable-background="new 0 0 345.07 356.338"
	 xml:space="preserve">
<rect x="12.962" y="5.754" fill="#D15A2A" width="269.068" height="342.584"/>
<rect x="282.031" y="5.754" fill="#652C16" width="52.932" height="342.584"/>
<rect x="29.136" y="20.73" fill="#E4E3E0" width="237.457" height="312.632"/>
<circle fill="#443D3C" cx="147.496" cy="130.666" r="98.511"/>
<g>
	<polygon fill="#E92629" points="203.585,145.851 188.188,154.891 188.188,89.417 203.776,81.17 	"/>
	<polygon fill="#99519D" points="162.762,187.415 147.221,178.527 203.707,145.848 218.649,155.215 	"/>
	<polygon fill="#FAE300" points="131.367,74.524 146.795,83.139 90.518,116.373 75.491,107.143 	"/>
	<polygon fill="#F69C21" points="188.188,89.417 188.189,106.434 131.367,74.524 131.911,56.897 	"/>
	<polygon fill="#447DC0" points="106.115,172.815 105.978,154.943 162.762,187.415 162.198,205.04 	"/>
	<polygon fill="#6DBD46" points="90.467,116.382 105.829,107.281 106.093,172.754 90.536,181.064 	"/>
</g>
</svg>
