<?xml version="1.0" encoding="utf-8"?>
<!-- Generator: Adobe Illustrator 14.0.0, SVG Export Plug-In . SVG Version: 6.00 Build 43363)  -->
<!DOCTYPE svg PUBLIC "-//W3C//DTD SVG 1.1//EN" "http://www.w3.org/Graphics/SVG/1.1/DTD/svg11.dtd">
<svg version="1.1" id="Calque_1" xmlns="http://www.w3.org/2000/svg" xmlns:xlink="http://www.w3.org/1999/xlink" x="0px" y="0px"
	 width="646px" height="134px" viewBox="0 0 646 134" enable-background="new 0 0 646 134" xml:space="preserve">
<g>
	<g>
		<path fill="#314358" d="M627.458,97.009c-10.326,0-18.693,8.198-18.693,18.307c0,10.101,8.367,18.3,18.693,18.3
			c10.328,0,18.696-8.199,18.696-18.3C646.154,105.207,637.786,97.009,627.458,97.009 M525.095,107.424l0.029-107.346h-11.292
			c0,0-18.76,6.785-32.272,8.228v20.277h8.531c2.742,0,3.894,1.171,3.934,3.733v75.109c0,2.646-1.556,4.097-4.073,4.261
			c-2.155,0.143-6.984,0.455-6.984,0.455v20.28h53.188v-20.28c0,0-4.836-0.312-6.986-0.455
			C526.648,111.521,525.095,110.07,525.095,107.424z M632.605,54.145c-1.037-22.621-31.673-23.662-47.686-8.381l-2.923-8.759
			h-37.026v20.731l7.764-0.011c2.753,0,3.769,1.168,3.806,3.729v45.971c0,2.646-1.558,4.097-4.076,4.261
			c-2.156,0.143-6.494,0.451-6.494,0.451v20.284h52.133v-20.284c0,0-4.312-0.309-6.461-0.451c-2.521-0.164-4.082-1.614-4.082-4.261
			l-0.012-31.169c0-5.842,1.339-15.591,11.649-18.085c1.271,9.749,10.689,12.661,15.286,12.661
			C626.086,70.83,632.605,62.143,632.605,54.145z M436.185,35.736c-7.895,0.346-16.223,3.367-22.272,8.624V0.078h-11.176
			c0,0-18.273,6.492-32.42,8.228l-0.461,20.277l8.942,0.013c2.745,0,3.927,1.169,3.964,3.734v100.102l25.554-0.026l3.655-8.214
			c0.78,0.438,12.506,11.459,31.23,9.254c23.573-2.779,35.954-21.444,35.954-49.763C479.155,68.826,474.599,34.057,436.185,35.736z
			 M431.456,110.29c-4.342,0.32-12.377-0.41-17.544-9.479V87.525l0.004-0.008h-0.004c0,0,0-9.655,0-15.362
			c0-6.641,6.136-12.471,15.628-12.823c9.613-0.356,18.125,6.206,18.125,24.74C447.665,109.076,436.698,109.901,431.456,110.29z
			 M362.597,107.505c0,0,0.002-23.559,0.002-28.944c0-10.315-0.124-20.975-6.952-29.677c-6.254-7.963-16.629-13.803-32.382-13.045
			c-10.462,0.504-21.621,5.366-27.782,13.692l-0.971,1.226l-0.59-0.71c-6.333-9.146-16.446-14.965-32.197-14.208
			c-10.465,0.504-21.624,5.366-27.785,13.692L233.015,37.1h-38.603v20.735l8.884,0.131c2.748,0,3.907,1.169,3.945,3.733
			l0.001,40.577v5.229c0,2.647-1.557,4.099-4.072,4.264c-2.156,0.142-6.519,0.451-6.519,0.451v20.279l52.2,0.018V112.22
			c0,0-4.113-0.291-6.52-0.451c-2.517-0.172-4.07-1.616-4.07-4.264c0,0,0.042-25.899,0.042-31.086
			c0-5.179,4.287-15.809,17.894-15.809c10.977,0,13.226,6.69,13.226,14.476c0,7.783,0.012,32.423,0.012,32.423
			c0,2.647-1.554,4.095-4.069,4.26c-2.155,0.145-6.52,0.457-6.52,0.457v20.273h52.145V112.22c0,0-4.111-0.291-6.521-0.451
			c-2.515-0.172-4.047-1.616-4.047-4.264h-0.078c0,0,0.045-25.899,0.045-31.086c0-5.179,3.822-15.809,17.432-15.809
			c10.976,0,13.724,6.69,13.724,14.476v27.189l-0.006,5.233c0,2.647-1.559,4.095-4.071,4.26c-2.157,0.145-6.521,0.457-6.521,0.457
			v20.273h52.213V112.22c0,0-4.113-0.291-6.518-0.451C364.126,111.597,362.597,110.152,362.597,107.505z M177.458,107.703V37.105
			h-43.382v20.729l8.358,0.002c2.752,0,3.907,1.17,3.944,3.733l-0.043,32.204c0,3.157-2.276,15.012-18.081,15.309
			c-10.77,0.207-13.036-6.145-13.036-14.475V37.105H83.273v59.146c0,14.966,6.835,38.51,38.726,37.649
			c10.47-0.288,22.465-5.554,28.698-13.276l0.261,11.893h35.597v-20.279c0,0-2.879-0.224-5.035-0.368
			C179.004,111.706,177.458,110.353,177.458,107.703z M59.199,110.054c-10.6,0.272-12.65-7.29-12.741-12.781V59.18h24.703V37.103
			H46.557V4.29c0,0-19.079,0-19.398,0c-0.318,0-0.874,0.275-0.952,0.97c-1.138,10.104-5.972,27.842-26.053,34.927V59.18H15.44
			v40.099c0,14.499,9.042,35.094,37.881,34.61c9.732-0.161,20.543-4.152,22.936-7.591l-6.369-18.483
			C67.423,108.96,62.718,109.961,59.199,110.054z"/>
	</g>
</g>
</svg>
